<?xml version="1.0" encoding="UTF-8"?>
<svg id="Layer_1" xmlns="http://www.w3.org/2000/svg" version="1.1" xmlns:xlink="http://www.w3.org/1999/xlink" viewBox="0 0 1080 1080">
  <!-- Generator: Adobe Illustrator 29.6.1, SVG Export Plug-In . SVG Version: 2.1.1 Build 9)  -->
  <defs>
    <style>
      .st0 {
        fill: url(#linear-gradient8);
        filter: url(#drop-shadow-9);
      }

      .st1 {
        fill: url(#linear-gradient3);
        filter: url(#drop-shadow-4);
      }

      .st2 {
        fill: url(#linear-gradient6);
        filter: url(#drop-shadow-7);
      }

      .st3 {
        fill: url(#linear-gradient1);
        filter: url(#drop-shadow-2);
      }

      .st4 {
        fill: url(#linear-gradient7);
        filter: url(#drop-shadow-8);
      }

      .st5 {
        fill: url(#linear-gradient5);
        filter: url(#drop-shadow-6);
      }

      .st6 {
        fill: url(#linear-gradient);
        filter: url(#drop-shadow-1);
      }

      .st7 {
        fill: url(#linear-gradient2);
        filter: url(#drop-shadow-3);
      }

      .st8 {
        fill: url(#linear-gradient4);
        filter: url(#drop-shadow-5);
      }
    </style>
    <linearGradient id="linear-gradient" x1="399.4" y1="419.2" x2="442.4" y2="419.2" gradientUnits="userSpaceOnUse">
      <stop offset="0" stop-color="#1b204e"/>
      <stop offset="1" stop-color="#1d2453"/>
    </linearGradient>
    <filter id="drop-shadow-1" x="188.6" y="428.1" width="212.6" height="480.2" filterUnits="userSpaceOnUse">
      <feOffset dx="15.3" dy="28.4"/>
      <feGaussianBlur result="blur" stdDeviation="19.7"/>
      <feFlood flood-color="#231f20" flood-opacity=".6"/>
      <feComposite in2="blur" operator="in"/>
      <feComposite in="SourceGraphic"/>
    </filter>
    <linearGradient id="linear-gradient1" x1="481.7" y1="555" x2="467.4" y2="397.7" gradientUnits="userSpaceOnUse">
      <stop offset="0" stop-color="#102246"/>
      <stop offset="1" stop-color="#1d3b6d"/>
    </linearGradient>
    <filter id="drop-shadow-2" x="304.5" y="537.6" width="212.4" height="470.9" filterUnits="userSpaceOnUse">
      <feOffset dx="15.3" dy="28.4"/>
      <feGaussianBlur result="blur1" stdDeviation="19.7"/>
      <feFlood flood-color="#231f20" flood-opacity=".6"/>
      <feComposite in2="blur1" operator="in"/>
      <feComposite in="SourceGraphic"/>
    </filter>
    <linearGradient id="linear-gradient2" x1="525" y1="598.7" x2="519.9" y2="424.1" gradientUnits="userSpaceOnUse">
      <stop offset="0" stop-color="#096caf"/>
      <stop offset="1" stop-color="#1c8aca"/>
    </linearGradient>
    <filter id="drop-shadow-3" x="415.9" y="640.1" width="201.8" height="462.7" filterUnits="userSpaceOnUse">
      <feOffset dx="15.3" dy="28.4"/>
      <feGaussianBlur result="blur2" stdDeviation="19.7"/>
      <feFlood flood-color="#231f20" flood-opacity=".6"/>
      <feComposite in2="blur2" operator="in"/>
      <feComposite in="SourceGraphic"/>
    </filter>
    <linearGradient id="linear-gradient3" x1="567.9" y1="591" x2="556.3" y2="417.4" gradientUnits="userSpaceOnUse">
      <stop offset="0" stop-color="#171c49"/>
      <stop offset="1" stop-color="#17254d"/>
    </linearGradient>
    <filter id="drop-shadow-4" x="499.2" y="590.9" width="208.3" height="511.9" filterUnits="userSpaceOnUse">
      <feOffset dx="15.3" dy="28.4"/>
      <feGaussianBlur result="blur3" stdDeviation="19.7"/>
      <feFlood flood-color="#231f20" flood-opacity=".6"/>
      <feComposite in2="blur3" operator="in"/>
      <feComposite in="SourceGraphic"/>
    </filter>
    <linearGradient id="linear-gradient4" x1="566.2" y1="439.6" x2="555" y2="249.5" gradientUnits="userSpaceOnUse">
      <stop offset="0" stop-color="#1a4174"/>
      <stop offset="1" stop-color="#2c578a"/>
    </linearGradient>
    <filter id="drop-shadow-5" x="495.1" y="239.7" width="212.2" height="535.7" filterUnits="userSpaceOnUse">
      <feOffset dx="15.3" dy="28.4"/>
      <feGaussianBlur result="blur4" stdDeviation="19.7"/>
      <feFlood flood-color="#231f20" flood-opacity=".6"/>
      <feComposite in2="blur4" operator="in"/>
      <feComposite in="SourceGraphic"/>
    </filter>
    <linearGradient id="linear-gradient5" x1="615.7" y1="550.1" x2="604.5" y2="341.8" gradientUnits="userSpaceOnUse">
      <stop offset="0" stop-color="#213b72"/>
      <stop offset="1" stop-color="#1463a7"/>
    </linearGradient>
    <filter id="drop-shadow-6" x="606.5" y="438.9" width="208.3" height="563" filterUnits="userSpaceOnUse">
      <feOffset dx="15.3" dy="28.4"/>
      <feGaussianBlur result="blur5" stdDeviation="19.7"/>
      <feFlood flood-color="#231f20" flood-opacity=".6"/>
      <feComposite in2="blur5" operator="in"/>
      <feComposite in="SourceGraphic"/>
    </filter>
    <linearGradient id="linear-gradient6" x1="670.8" y1="504.9" x2="651.4" y2="257.7" gradientUnits="userSpaceOnUse">
      <stop offset="0" stop-color="#035ea7"/>
      <stop offset="1" stop-color="#2da3dc"/>
    </linearGradient>
    <filter id="drop-shadow-7" x="711.3" y="261.6" width="223.7" height="648.2" filterUnits="userSpaceOnUse">
      <feOffset dx="15.3" dy="28.4"/>
      <feGaussianBlur result="blur6" stdDeviation="19.7"/>
      <feFlood flood-color="#231f20" flood-opacity=".6"/>
      <feComposite in2="blur6" operator="in"/>
      <feComposite in="SourceGraphic"/>
    </filter>
    <linearGradient id="linear-gradient7" x1="393.6" y1="293.9" x2="537.6" y2="293.9" gradientUnits="userSpaceOnUse">
      <stop offset="0" stop-color="#1a2141"/>
      <stop offset=".8" stop-color="#151c3d"/>
      <stop offset="1" stop-color="#13193b"/>
    </linearGradient>
    <filter id="drop-shadow-8" x="175.9" y="257.3" width="433.7" height="273.6" filterUnits="userSpaceOnUse">
      <feOffset dx="15.3" dy="28.4"/>
      <feGaussianBlur result="blur7" stdDeviation="19.7"/>
      <feFlood flood-color="#231f20" flood-opacity=".6"/>
      <feComposite in2="blur7" operator="in"/>
      <feComposite in="SourceGraphic"/>
    </filter>
    <linearGradient id="linear-gradient8" x1="478.5" y1="269.8" x2="660.1" y2="150.9" gradientUnits="userSpaceOnUse">
      <stop offset="0" stop-color="#0f1d3f"/>
      <stop offset=".1" stop-color="#0f2143"/>
      <stop offset=".3" stop-color="#112c52"/>
      <stop offset=".5" stop-color="#154069"/>
      <stop offset=".7" stop-color="#195b8a"/>
      <stop offset=".9" stop-color="#1f7eb4"/>
      <stop offset="1" stop-color="#2497d3"/>
    </linearGradient>
    <filter id="drop-shadow-9" x="333.6" y="34.3" width="551.3" height="329" filterUnits="userSpaceOnUse">
      <feOffset dx="15.3" dy="28.4"/>
      <feGaussianBlur result="blur8" stdDeviation="19.7"/>
      <feFlood flood-color="#231f20" flood-opacity=".6"/>
      <feComposite in2="blur8" operator="in"/>
      <feComposite in="SourceGraphic"/>
    </filter>
  </defs>
  <path class="st6" d="M325.7,458.9l-92.8,87.7-.5,153.4c2,11.6,6.5,29.4,17.9,47.9,1.9,3,8,12.7,24.7,29.6,11.4,11.5,28.3,27,51.4,43.1-.3-120.6-.5-241.1-.8-361.7Z"/>
  <polygon class="st3" points="348.4 841.4 442.3 920.7 442.3 653.2 348.5 568.2 348.4 841.4"/>
  <path class="st7" d="M459.9,670.8c27.8,23.4,55.5,46.8,83.3,70.2v274l-83.3-75.1v-269.2Z"/>
  <polygon class="st1" points="632.7 931.6 543.2 1015 543.2 687.6 632.5 621.7 632.7 931.6"/>
  <path class="st8" d="M538.9,270.4c31.2,30.4,62.5,60.8,93.7,91.2,0,86.7,0,173.4,0,260.1l-89.4,65.9-4.3-417.1Z"/>
  <polygon class="st5" points="650.6 469.8 740.1 551 740.1 838.1 650.3 914.1 650.6 469.8"/>
  <path class="st2" d="M757.4,822.1l48-36.7c10.5-7.2,30.8-23.2,43.8-51.4,7.5-16.1,10.1-31,11-41.5v-301.5l-105.2-98.7,2.3,529.7Z"/>
  <polygon class="st4" points="232.5 406.5 219.7 395 346.2 288.1 534.8 430.1 521.5 443.1 345.5 309.9 232.5 406.5"/>
  <path class="st0" d="M391.8,275.6l-14.4-12.6,172.5-149.7,107.6,81.3,117.5-97.6v-3.6l-8.9,2-41.7,15.5-19.8-19.4,105.6-26.5-39.3,113.9-5.4.3-12.5-17.9-1-14.4c2.1,0,3.2.7,3.8,1.3,0,0,1.5,1.3,2.3,9.1l8.7-31.1-106.4,94.6-109.5-82.4-159,137.3Z"/>
</svg>