<?xml version="1.0" encoding="UTF-8"?>
<svg id="Layer_1" xmlns="http://www.w3.org/2000/svg" version="1.1" xmlns:xlink="http://www.w3.org/1999/xlink" viewBox="0 0 1080 1080">
  <!-- Generator: Adobe Illustrator 29.7.0, SVG Export Plug-In . SVG Version: 2.1.1 Build 138)  -->
  <defs>
    <style>
      .st0 {
        fill: url(#linear-gradient8);
        filter: url(#drop-shadow-9);
      }

      .st1 {
        fill: url(#linear-gradient3);
        filter: url(#drop-shadow-4);
      }

      .st2 {
        fill: url(#linear-gradient10);
      }

      .st3 {
        fill: url(#linear-gradient21);
      }

      .st4 {
        fill: url(#linear-gradient9);
      }

      .st5 {
        fill: url(#linear-gradient18);
      }

      .st6 {
        fill: url(#linear-gradient6);
        filter: url(#drop-shadow-7);
      }

      .st7 {
        fill: url(#linear-gradient23);
      }

      .st8 {
        fill: url(#linear-gradient1);
        filter: url(#drop-shadow-2);
      }

      .st9 {
        fill: url(#linear-gradient11);
      }

      .st10 {
        fill: url(#linear-gradient16);
      }

      .st11 {
        fill: url(#linear-gradient24);
      }

      .st12 {
        fill: url(#linear-gradient22);
      }

      .st13 {
        fill: url(#linear-gradient19);
      }

      .st14 {
        fill: url(#linear-gradient7);
        filter: url(#drop-shadow-8);
      }

      .st15 {
        fill: url(#linear-gradient12);
      }

      .st16 {
        fill: url(#linear-gradient5);
        filter: url(#drop-shadow-6);
      }

      .st17 {
        fill: url(#linear-gradient);
        filter: url(#drop-shadow-1);
      }

      .st18 {
        fill: url(#linear-gradient20);
      }

      .st19 {
        fill: url(#linear-gradient2);
        filter: url(#drop-shadow-3);
      }

      .st20 {
        fill: url(#linear-gradient14);
      }

      .st21 {
        fill: url(#linear-gradient25);
      }

      .st22 {
        fill: url(#linear-gradient4);
        filter: url(#drop-shadow-5);
      }

      .st23 {
        fill: url(#linear-gradient15);
      }

      .st24 {
        fill: url(#linear-gradient17);
      }

      .st25 {
        fill: #193864;
      }

      .st26 {
        fill: url(#linear-gradient13);
      }
    </style>
    <linearGradient id="linear-gradient" x1="399.4" y1="419.2" x2="442.4" y2="419.2" gradientUnits="userSpaceOnUse">
      <stop offset="0" stop-color="#1b204e"/>
      <stop offset="1" stop-color="#1d2453"/>
    </linearGradient>
    <filter id="drop-shadow-1" x="379.3" y="322.4" width="97.2" height="219.6" filterUnits="userSpaceOnUse">
      <feOffset dx="7" dy="13"/>
      <feGaussianBlur result="blur" stdDeviation="9"/>
      <feFlood flood-color="#231f20" flood-opacity=".6"/>
      <feComposite in2="blur" operator="in"/>
      <feComposite in="SourceGraphic"/>
    </filter>
    <linearGradient id="linear-gradient1" x1="481.7" y1="555" x2="467.4" y2="397.7" gradientUnits="userSpaceOnUse">
      <stop offset="0" stop-color="#102246"/>
      <stop offset="1" stop-color="#1d3b6d"/>
    </linearGradient>
    <filter id="drop-shadow-2" x="432.4" y="372.4" width="97.2" height="215.3" filterUnits="userSpaceOnUse">
      <feOffset dx="7" dy="13"/>
      <feGaussianBlur result="blur1" stdDeviation="9"/>
      <feFlood flood-color="#231f20" flood-opacity=".6"/>
      <feComposite in2="blur1" operator="in"/>
      <feComposite in="SourceGraphic"/>
    </filter>
    <linearGradient id="linear-gradient2" x1="525" y1="598.7" x2="519.9" y2="424.1" gradientUnits="userSpaceOnUse">
      <stop offset="0" stop-color="#096caf"/>
      <stop offset="1" stop-color="#1c8aca"/>
    </linearGradient>
    <filter id="drop-shadow-3" x="483.2" y="419.2" width="92.4" height="211.7" filterUnits="userSpaceOnUse">
      <feOffset dx="7" dy="13"/>
      <feGaussianBlur result="blur2" stdDeviation="9"/>
      <feFlood flood-color="#231f20" flood-opacity=".6"/>
      <feComposite in2="blur2" operator="in"/>
      <feComposite in="SourceGraphic"/>
    </filter>
    <linearGradient id="linear-gradient3" x1="567.9" y1="591" x2="556.3" y2="417.4" gradientUnits="userSpaceOnUse">
      <stop offset="0" stop-color="#171c49"/>
      <stop offset="1" stop-color="#17254d"/>
    </linearGradient>
    <filter id="drop-shadow-4" x="521.4" y="396.8" width="95" height="234" filterUnits="userSpaceOnUse">
      <feOffset dx="7" dy="13"/>
      <feGaussianBlur result="blur3" stdDeviation="9"/>
      <feFlood flood-color="#231f20" flood-opacity=".6"/>
      <feComposite in2="blur3" operator="in"/>
      <feComposite in="SourceGraphic"/>
    </filter>
    <linearGradient id="linear-gradient4" x1="566.2" y1="439.6" x2="555" y2="249.5" gradientUnits="userSpaceOnUse">
      <stop offset="0" stop-color="#1a4174"/>
      <stop offset="1" stop-color="#2c578a"/>
    </linearGradient>
    <filter id="drop-shadow-5" x="519.5" y="236.3" width="97" height="244.8" filterUnits="userSpaceOnUse">
      <feOffset dx="7" dy="13"/>
      <feGaussianBlur result="blur4" stdDeviation="9"/>
      <feFlood flood-color="#231f20" flood-opacity=".6"/>
      <feComposite in2="blur4" operator="in"/>
      <feComposite in="SourceGraphic"/>
    </filter>
    <linearGradient id="linear-gradient5" x1="615.7" y1="550.1" x2="604.5" y2="341.8" gradientUnits="userSpaceOnUse">
      <stop offset="0" stop-color="#213b72"/>
      <stop offset="1" stop-color="#1463a7"/>
    </linearGradient>
    <filter id="drop-shadow-6" x="570.4" y="327.5" width="95.3" height="257.3" filterUnits="userSpaceOnUse">
      <feOffset dx="7" dy="13"/>
      <feGaussianBlur result="blur5" stdDeviation="9"/>
      <feFlood flood-color="#231f20" flood-opacity=".6"/>
      <feComposite in2="blur5" operator="in"/>
      <feComposite in="SourceGraphic"/>
    </filter>
    <linearGradient id="linear-gradient6" x1="670.8" y1="504.9" x2="651.4" y2="257.7" gradientUnits="userSpaceOnUse">
      <stop offset="0" stop-color="#035ea7"/>
      <stop offset="1" stop-color="#2da3dc"/>
    </linearGradient>
    <filter id="drop-shadow-7" x="618.1" y="246.4" width="102.5" height="296.4" filterUnits="userSpaceOnUse">
      <feOffset dx="7" dy="13"/>
      <feGaussianBlur result="blur6" stdDeviation="9"/>
      <feFlood flood-color="#231f20" flood-opacity=".6"/>
      <feComposite in2="blur6" operator="in"/>
      <feComposite in="SourceGraphic"/>
    </filter>
    <linearGradient id="linear-gradient7" x1="393.6" y1="293.9" x2="537.6" y2="293.9" gradientUnits="userSpaceOnUse">
      <stop offset="0" stop-color="#1a2141"/>
      <stop offset=".8" stop-color="#151c3d"/>
      <stop offset="1" stop-color="#13193b"/>
    </linearGradient>
    <filter id="drop-shadow-8" x="373.6" y="244.4" width="198.2" height="125" filterUnits="userSpaceOnUse">
      <feOffset dx="7" dy="13"/>
      <feGaussianBlur result="blur7" stdDeviation="9"/>
      <feFlood flood-color="#231f20" flood-opacity=".6"/>
      <feComposite in2="blur7" operator="in"/>
      <feComposite in="SourceGraphic"/>
    </filter>
    <linearGradient id="linear-gradient8" x1="478.5" y1="269.8" x2="660.1" y2="150.9" gradientUnits="userSpaceOnUse">
      <stop offset="0" stop-color="#0f1d3f"/>
      <stop offset=".1" stop-color="#0f2143"/>
      <stop offset=".3" stop-color="#112c52"/>
      <stop offset=".5" stop-color="#154069"/>
      <stop offset=".7" stop-color="#195b8a"/>
      <stop offset=".9" stop-color="#1f7eb4"/>
      <stop offset="1" stop-color="#2497d3"/>
    </linearGradient>
    <filter id="drop-shadow-9" x="445.6" y="142.4" width="252" height="150.5" filterUnits="userSpaceOnUse">
      <feOffset dx="7" dy="13"/>
      <feGaussianBlur result="blur8" stdDeviation="9"/>
      <feFlood flood-color="#231f20" flood-opacity=".6"/>
      <feComposite in2="blur8" operator="in"/>
      <feComposite in="SourceGraphic"/>
    </filter>
    <linearGradient id="linear-gradient9" x1="103.8" y1="759.5" x2="119.5" y2="759.5" xlink:href="#linear-gradient3"/>
    <linearGradient id="linear-gradient10" x1="103.8" y1="711.5" x2="119.5" y2="711.5" xlink:href="#linear-gradient2"/>
    <linearGradient id="linear-gradient11" x1="476.3" y1="708.9" x2="492.3" y2="708.9" xlink:href="#linear-gradient2"/>
    <linearGradient id="linear-gradient12" x1="799.3" y1="708.9" x2="815.3" y2="708.9" xlink:href="#linear-gradient2"/>
    <linearGradient id="linear-gradient13" x1="168.5" y1="746.2" x2="235" y2="746.2" xlink:href="#linear-gradient3"/>
    <linearGradient id="linear-gradient14" x1="223.4" y1="758.8" x2="291.9" y2="758.8" xlink:href="#linear-gradient3"/>
    <linearGradient id="linear-gradient15" x1="302.1" y1="772.1" x2="370.6" y2="772.1" xlink:href="#linear-gradient3"/>
    <linearGradient id="linear-gradient16" x1="419.5" y1="746.2" x2="471.8" y2="746.2" xlink:href="#linear-gradient3"/>
    <linearGradient id="linear-gradient17" x1="477.2" y1="758.3" x2="491.5" y2="758.3" xlink:href="#linear-gradient3"/>
    <linearGradient id="linear-gradient18" x1="505.8" y1="758.4" x2="566.5" y2="758.4" xlink:href="#linear-gradient3"/>
    <linearGradient id="linear-gradient19" x1="576.1" y1="758.8" x2="644.6" y2="758.8" xlink:href="#linear-gradient3"/>
    <linearGradient id="linear-gradient20" x1="658.9" y1="758.4" x2="719.7" y2="758.4" xlink:href="#linear-gradient3"/>
    <linearGradient id="linear-gradient21" x1="729.2" y1="758.7" x2="789.9" y2="758.7" xlink:href="#linear-gradient3"/>
    <linearGradient id="linear-gradient22" x1="800.2" y1="758.3" x2="814.5" y2="758.3" xlink:href="#linear-gradient3"/>
    <linearGradient id="linear-gradient23" x1="824.7" y1="758.8" x2="893.2" y2="758.8" xlink:href="#linear-gradient3"/>
    <linearGradient id="linear-gradient24" x1="907.5" y1="746.2" x2="921.8" y2="746.2" xlink:href="#linear-gradient3"/>
    <linearGradient id="linear-gradient25" x1="931.8" y1="758.7" x2="981.6" y2="758.7" xlink:href="#linear-gradient3"/>
  </defs>
  <image width="1280" height="1280" transform="translate(1917.4 -3980.1)" xlink:href="I tag Final logo version-1.png"/>
  <g>
    <path class="st17" d="M442.1,336.5l-42.4,40.1-.2,70.1c.9,5.3,3,13.4,8.2,21.9.8,1.4,3.7,5.8,11.3,13.5,5.2,5.3,12.9,12.4,23.5,19.7-.1-55.1-.2-110.2-.4-165.3Z"/>
    <polygon class="st8" points="452.4 511.4 495.4 547.6 495.3 425.3 452.4 386.5 452.4 511.4"/>
    <path class="st19" d="M503.4,433.4c12.7,10.7,25.4,21.4,38.1,32.1v125.3l-38.1-34.3v-123Z"/>
    <polygon class="st1" points="582.4 552.6 541.4 590.7 541.4 441.1 582.3 411 582.4 552.6"/>
    <path class="st22" d="M539.5,250.4c14.3,13.9,28.6,27.8,42.9,41.7,0,39.6,0,79.3,0,118.9l-40.9,30.1-2-190.7Z"/>
    <polygon class="st16" points="590.6 341.5 631.5 378.6 631.5 509.9 590.4 544.6 590.6 341.5"/>
    <path class="st6" d="M639.4,502.6l21.9-16.8c4.8-3.3,14.1-10.6,20-23.5,3.4-7.4,4.6-14.2,5-19v-137.8l-48.1-45.1,1.1,242.1Z"/>
    <polygon class="st14" points="399.4 312.6 393.6 307.3 451.4 258.5 537.6 323.4 531.5 329.3 451.1 268.4 399.4 312.6"/>
    <path class="st0" d="M472.2,252.7l-6.6-5.8,78.9-68.4,49.2,37.2,53.7-44.6v-1.6l-4.1.9-19.1,7.1-9.1-8.9,48.3-12.1-18,52.1h-2.5c0,.1-5.7-8-5.7-8l-.4-6.6c.9,0,1.4.3,1.7.6,0,0,.7.6,1,4.1l4-14.2-48.6,43.3-50.1-37.7-72.7,62.8Z"/>
  </g>
  <g>
    <path class="st4" d="M119.5,792.2h-15.7v-62.2c.7-.6,3.5-3,7.8-3.1,4.3-.1,7.2,2.1,7.9,2.7v62.6Z"/>
    <path class="st2" d="M119.5,707.1c-2.6-2.3-5.2-4.6-7.9-6.9-2.6,2.3-5.2,4.6-7.9,6.9v15.7c1-.7,3.8-2.5,7.9-2.5s4.5.2,7.9,2.5v-15.7Z"/>
  </g>
  <g>
    <path class="st9" d="M477,705.9c.4-1,1-1.8,1.7-2.6.7-.7,1.6-1.3,2.5-1.7,1-.4,2-.6,3.1-.6s2.1.2,3.1.6c1,.4,1.8,1,2.5,1.7s1.3,1.6,1.7,2.6c.4,1,.6,2,.6,3.1s-.2,2.1-.6,3.1c-.4,1-1,1.8-1.7,2.5-.7.7-1.6,1.3-2.5,1.7-1,.4-2,.6-3.1.6s-2.1-.2-3.1-.6c-1-.4-1.8-1-2.5-1.7-.7-.7-1.3-1.6-1.7-2.5-.4-1-.6-2-.6-3.1s.2-2.1.6-3.1Z"/>
    <path class="st15" d="M800,705.9c.4-1,1-1.8,1.7-2.6.7-.7,1.6-1.3,2.5-1.7,1-.4,2-.6,3.1-.6s2.1.2,3.1.6c1,.4,1.8,1,2.5,1.7s1.3,1.6,1.7,2.6c.4,1,.6,2,.6,3.1s-.2,2.1-.6,3.1c-.4,1-1,1.8-1.7,2.5-.7.7-1.6,1.3-2.5,1.7-1,.4-2,.6-3.1.6s-2.1-.2-3.1-.6c-1-.4-1.8-1-2.5-1.7-.7-.7-1.3-1.6-1.7-2.5-.4-1-.6-2-.6-3.1s.2-2.1.6-3.1Z"/>
    <path class="st26" d="M208.7,714.4v70.7c0,2-.7,3.7-2.1,5-1.4,1.3-3.1,2-5.1,2s-3.7-.7-4.9-2c-1.3-1.3-1.9-3-1.9-5v-70.7h-19.1c-2,0-3.7-.7-5-2-1.3-1.4-2-3.1-2-5.1s.7-3.7,2-5.1c1.3-1.4,3-2,5-2h52.3c2,0,3.7.7,5.1,2.1,1.4,1.4,2,3.1,2,5.1s-.2,1.9-.5,2.8c-.4.9-.9,1.6-1.5,2.2-.6.6-1.4,1.1-2.3,1.5-.9.4-1.8.5-2.8.5h-19.2Z"/>
    <path class="st20" d="M223.4,758.8c0-4.7.9-9.2,2.7-13.3,1.8-4.1,4.3-7.8,7.4-10.9,3.1-3.1,6.8-5.6,10.9-7.4,4.2-1.8,8.6-2.7,13.3-2.7s9.1.9,13.2,2.7c4.1,1.8,7.7,4.2,10.8,7.3,3.1,3.1,5.5,6.7,7.4,10.8,1.8,4.1,2.8,8.5,2.8,13.2v26.4c0,1-.2,2-.6,2.8-.4.9-.9,1.7-1.5,2.3-.6.7-1.4,1.2-2.3,1.6-.9.4-1.9.6-2.9.6-1.9,0-3.5-.6-4.8-1.9s-2-2.8-2.2-4.6c-2.8,2.3-5.9,4.1-9.3,5.4-3.4,1.3-6.9,2-10.6,2s-9.1-.9-13.3-2.7c-4.2-1.8-7.8-4.3-10.9-7.4s-5.6-6.7-7.4-10.9c-1.8-4.1-2.7-8.6-2.7-13.3ZM237.7,758.8c0,2.7.5,5.3,1.6,7.7,1.1,2.4,2.5,4.5,4.3,6.3,1.8,1.8,3.9,3.2,6.3,4.3,2.4,1.1,5,1.6,7.7,1.6s5.4-.5,7.8-1.6c2.4-1.1,4.5-2.5,6.3-4.3,1.8-1.8,3.2-3.9,4.3-6.3,1-2.4,1.5-5,1.5-7.7s-.5-5.4-1.5-7.8c-1-2.4-2.4-4.5-4.3-6.3-1.8-1.8-3.9-3.2-6.3-4.2s-5-1.5-7.8-1.5-5.3.5-7.7,1.5-4.5,2.4-6.3,4.2c-1.8,1.8-3.2,3.9-4.3,6.3-1.1,2.4-1.6,5-1.6,7.8Z"/>
    <path class="st23" d="M370.6,756.7c0,.4,0,.7,0,1,0,.3,0,.7,0,1s0,.7,0,1.1c0,.3,0,.7,0,1.1v24.6c0,4.9-1,9.4-2.8,13.6-1.8,4.2-4.2,7.8-7.3,10.8-3.1,3-6.7,5.4-10.8,7.2-4.1,1.7-8.6,2.6-13.3,2.6s-8.8-.8-12.9-2.3c-4.1-1.6-7.6-3.8-10.5-6.9-.9-.9-1.5-1.8-1.9-2.8s-.7-2-.7-2.9c0-1,.2-1.9.5-2.8s1-1.7,1.7-2.3c1.1-1,2.3-1.6,3.3-1.9,1.1-.3,2.1-.3,3,0,.9.2,1.8.6,2.7,1.2.8.6,1.6,1.1,2.3,1.7,2.2,1.8,4.4,3,6.6,3.7,2.3.7,4.6,1,7,.9,2.5,0,4.8-.6,7-1.6,2.2-1,4.1-2.3,5.8-4,1.7-1.7,3-3.6,4-5.8,1-2.2,1.6-4.5,1.9-7-2.8,2-5.9,3.5-9.2,4.6-3.3,1.1-6.8,1.6-10.5,1.6s-9.1-.9-13.3-2.7c-4.2-1.8-7.8-4.3-10.9-7.4s-5.6-6.7-7.4-10.9c-1.8-4.1-2.7-8.6-2.7-13.3s.9-9.2,2.7-13.3c1.8-4.1,4.3-7.8,7.4-10.9,3.1-3.1,6.8-5.6,10.9-7.4,4.2-1.8,8.6-2.7,13.3-2.7s7.3.6,10.6,1.7c3.3,1.1,6.4,2.7,9.2,4.7.2-1.8,1-3.3,2.3-4.6s3-1.8,4.9-1.8,3.7.7,5.1,2c1.4,1.3,2,3,2,5v25.2ZM316.4,758.8c0,2.7.5,5.3,1.6,7.7,1.1,2.4,2.5,4.5,4.3,6.3,1.8,1.8,3.9,3.2,6.3,4.3,2.4,1.1,5,1.6,7.7,1.6s5.1-.5,7.4-1.4c2.3-1,4.4-2.3,6.1-3.9,1.7-1.7,3.2-3.6,4.3-5.8,1.1-2.2,1.8-4.6,2-7.1v-3.3c-.2-2.6-.9-5-2-7.2-1.1-2.2-2.5-4.1-4.3-5.8-1.8-1.6-3.8-2.9-6.1-3.9-2.3-.9-4.8-1.4-7.4-1.4s-5.3.5-7.7,1.5-4.5,2.4-6.3,4.2-3.2,3.9-4.3,6.3c-1.1,2.4-1.6,5-1.6,7.8Z"/>
    <path class="st10" d="M464.7,700.2c1,0,1.9.2,2.8.6.8.4,1.6.9,2.2,1.5s1.1,1.4,1.5,2.3c.4.9.5,1.8.5,2.8,0,2-.7,3.7-2,5.1-1.3,1.4-3,2-5,2h-30.9v24.6h21.2c2,0,3.7.7,5.1,2s2,3.1,2,5.1-.7,3.7-2,4.9-3.1,1.9-5.1,1.9h-21.2v32.1c0,1-.2,1.9-.6,2.8-.4.9-.9,1.6-1.5,2.2-.6.6-1.4,1.1-2.3,1.5s-1.8.5-2.8.5-1.9-.2-2.8-.5-1.6-.9-2.3-1.5c-.6-.6-1.1-1.4-1.5-2.2-.4-.8-.5-1.8-.5-2.8v-78.1c0-.8.1-1.6.4-2.4.3-.8.7-1.6,1.3-2.2.6-.7,1.3-1.2,2.2-1.7s2-.6,3.3-.6h38.1Z"/>
    <path class="st24" d="M491.5,785.1c0,2-.7,3.7-2,5.1s-3.1,2-5.1,2-1.9-.2-2.8-.5c-.9-.4-1.7-.9-2.3-1.5s-1.2-1.4-1.5-2.3c-.4-.9-.6-1.8-.6-2.8v-53.5c0-1,.2-1.9.6-2.8.4-.9.9-1.6,1.6-2.3.7-.6,1.4-1.2,2.3-1.5.9-.4,1.8-.6,2.8-.6s1.9.2,2.8.6c.9.4,1.6.9,2.2,1.5.6.6,1.1,1.4,1.5,2.3.4.9.5,1.8.5,2.8v53.5Z"/>
    <path class="st5" d="M566.5,757.7v27.6c0,2-.7,3.7-2.1,5-1.4,1.3-3.1,2-5.1,2s-3.7-.7-5.1-2c-1.4-1.3-2.1-3-2.1-5v-27.6c0-2.9-.4-5.5-1.1-7.8-.7-2.3-1.7-4.3-3-6-1.3-1.7-2.9-2.9-4.8-3.8-1.9-.9-4-1.4-6.4-1.4s-4.6.5-6.7,1.4c-2.1.9-3.8,2.2-5.3,3.9-1.5,1.7-2.6,3.6-3.5,5.9-.8,2.3-1.3,4.7-1.3,7.4v27.7c0,2-.7,3.7-2,5.1-1.4,1.4-3.1,2-5.1,2s-1.9-.2-2.8-.5c-.9-.4-1.7-.9-2.3-1.5s-1.2-1.4-1.5-2.3c-.4-.9-.6-1.8-.6-2.8v-53.5c0-1,.2-1.9.6-2.8.4-.9.9-1.6,1.6-2.3.7-.6,1.4-1.2,2.3-1.5.9-.4,1.8-.6,2.8-.6s1.9.2,2.8.6c.9.4,1.6.9,2.2,1.6s1.1,1.4,1.5,2.3c.4.9.5,1.8.5,2.8v1c2.6-2.5,5.5-4.5,8.6-6,3.1-1.5,6.4-2.2,9.8-2.2s8,.8,11.4,2.5c3.5,1.7,6.4,4,8.9,6.9,2.4,2.9,4.4,6.4,5.7,10.5,1.4,4,2.1,8.5,2.1,13.3Z"/>
    <path class="st13" d="M576.1,758.8c0-4.7.9-9.2,2.7-13.3,1.8-4.1,4.3-7.8,7.4-10.9,3.1-3.1,6.8-5.6,10.9-7.4,4.2-1.8,8.6-2.7,13.3-2.7s9.1.9,13.2,2.7c4.1,1.8,7.7,4.2,10.8,7.3,3.1,3.1,5.5,6.7,7.4,10.8,1.8,4.1,2.8,8.5,2.8,13.2v26.4c0,1-.2,2-.6,2.8-.4.9-.9,1.7-1.5,2.3-.6.7-1.4,1.2-2.3,1.6-.9.4-1.9.6-2.9.6-1.9,0-3.5-.6-4.8-1.9s-2-2.8-2.2-4.6c-2.8,2.3-5.9,4.1-9.3,5.4-3.4,1.3-6.9,2-10.6,2s-9.1-.9-13.3-2.7c-4.2-1.8-7.8-4.3-10.9-7.4s-5.6-6.7-7.4-10.9c-1.8-4.1-2.7-8.6-2.7-13.3ZM590.4,758.8c0,2.7.5,5.3,1.6,7.7,1.1,2.4,2.5,4.5,4.3,6.3,1.8,1.8,3.9,3.2,6.3,4.3,2.4,1.1,5,1.6,7.7,1.6s5.4-.5,7.8-1.6c2.4-1.1,4.5-2.5,6.3-4.3,1.8-1.8,3.2-3.9,4.3-6.3,1-2.4,1.5-5,1.5-7.7s-.5-5.4-1.5-7.8c-1-2.4-2.4-4.5-4.3-6.3-1.8-1.8-3.9-3.2-6.3-4.2s-5-1.5-7.8-1.5-5.3.5-7.7,1.5-4.5,2.4-6.3,4.2c-1.8,1.8-3.2,3.9-4.3,6.3-1.1,2.4-1.6,5-1.6,7.8Z"/>
    <path class="st18" d="M719.7,757.7v27.6c0,2-.7,3.7-2.1,5-1.4,1.3-3.1,2-5.1,2s-3.7-.7-5.1-2c-1.4-1.3-2.1-3-2.1-5v-27.6c0-2.9-.4-5.5-1.1-7.8-.7-2.3-1.7-4.3-3-6-1.3-1.7-2.9-2.9-4.8-3.8-1.9-.9-4-1.4-6.4-1.4s-4.6.5-6.7,1.4c-2.1.9-3.8,2.2-5.3,3.9-1.5,1.7-2.6,3.6-3.5,5.9-.8,2.3-1.3,4.7-1.3,7.4v27.7c0,2-.7,3.7-2,5.1-1.4,1.4-3.1,2-5.1,2s-1.9-.2-2.8-.5c-.9-.4-1.7-.9-2.3-1.5s-1.2-1.4-1.5-2.3c-.4-.9-.6-1.8-.6-2.8v-53.5c0-1,.2-1.9.6-2.8.4-.9.9-1.6,1.6-2.3.7-.6,1.4-1.2,2.3-1.5.9-.4,1.8-.6,2.8-.6s1.9.2,2.8.6c.9.4,1.6.9,2.2,1.6s1.1,1.4,1.5,2.3c.4.9.5,1.8.5,2.8v1c2.6-2.5,5.5-4.5,8.6-6,3.1-1.5,6.4-2.2,9.8-2.2s8,.8,11.4,2.5c3.5,1.7,6.4,4,8.9,6.9,2.4,2.9,4.4,6.4,5.7,10.5,1.4,4,2.1,8.5,2.1,13.3Z"/>
    <path class="st3" d="M743.9,758.7h0c0,.1,0,.2,0,.2,0,2.4.5,4.8,1.4,7.2.9,2.3,2.2,4.4,3.9,6.3,1.7,1.8,3.7,3.3,5.9,4.5s4.8,1.7,7.4,1.8c2.4,0,4.8-.2,7-.9,2.3-.7,4.5-1.9,6.6-3.7.7-.6,1.5-1.1,2.3-1.7.8-.6,1.7-.9,2.7-1.2.9-.2,1.9-.2,3,0,1.1.2,2.2.9,3.3,1.9.8.7,1.3,1.5,1.7,2.4.4.9.6,1.8.5,2.8,0,1-.3,1.9-.7,2.9-.4,1-1.1,1.9-1.9,2.8-2.9,3-6.4,5.3-10.5,6.9-4.1,1.6-8.4,2.3-12.9,2.3s-9.3-.9-13.5-2.6-7.9-4.1-11-7.2c-3.1-3-5.6-6.6-7.4-10.8-1.8-4.1-2.7-8.6-2.7-13.3h0c0,0,0-.2,0-.2h0c0-4.9.9-9.3,2.7-13.5,1.8-4.2,4.3-7.8,7.4-10.9,3.1-3.1,6.8-5.6,11-7.4,4.2-1.8,8.7-2.7,13.5-2.7s8.8.8,12.9,2.3c4.1,1.6,7.6,3.8,10.5,6.9.9.9,1.5,1.8,1.9,2.8.4,1,.7,2,.7,2.9,0,1-.2,1.9-.5,2.8-.4.9-1,1.7-1.7,2.4-1.1,1-2.3,1.6-3.3,1.9s-2.1.2-3,0-1.8-.6-2.7-1.2c-.8-.6-1.6-1.1-2.3-1.7-2.2-1.8-4.4-3-6.6-3.7s-4.6-1-7-.9c-2.6,0-5.1.7-7.4,1.8-2.3,1.1-4.3,2.6-5.9,4.5s-3,3.9-4,6.3-1.4,4.7-1.4,7.2Z"/>
    <path class="st12" d="M814.5,785.1c0,2-.7,3.7-2,5.1s-3.1,2-5.1,2-1.9-.2-2.8-.5c-.9-.4-1.7-.9-2.3-1.5s-1.2-1.4-1.5-2.3c-.4-.9-.6-1.8-.6-2.8v-53.5c0-1,.2-1.9.6-2.8.4-.9.9-1.6,1.6-2.3.7-.6,1.4-1.2,2.3-1.5.9-.4,1.8-.6,2.8-.6s1.9.2,2.8.6c.9.4,1.6.9,2.2,1.5.6.6,1.1,1.4,1.5,2.3.4.9.5,1.8.5,2.8v53.5Z"/>
    <path class="st7" d="M824.7,758.8c0-4.7.9-9.2,2.7-13.3,1.8-4.1,4.3-7.8,7.4-10.9,3.1-3.1,6.8-5.6,10.9-7.4,4.2-1.8,8.6-2.7,13.3-2.7s9.1.9,13.2,2.7c4.1,1.8,7.7,4.2,10.8,7.3,3.1,3.1,5.5,6.7,7.4,10.8s2.8,8.5,2.8,13.2v26.4c0,1-.2,2-.6,2.8-.4.9-.9,1.7-1.5,2.3-.6.7-1.4,1.2-2.3,1.6-.9.4-1.9.6-2.9.6-1.9,0-3.5-.6-4.8-1.9s-2-2.8-2.2-4.6c-2.8,2.3-5.9,4.1-9.3,5.4-3.4,1.3-6.9,2-10.6,2s-9.1-.9-13.3-2.7c-4.2-1.8-7.8-4.3-10.9-7.4s-5.6-6.7-7.4-10.9c-1.8-4.1-2.7-8.6-2.7-13.3ZM839,758.8c0,2.7.5,5.3,1.6,7.7,1.1,2.4,2.5,4.5,4.3,6.3,1.8,1.8,3.9,3.2,6.3,4.3,2.4,1.1,5,1.6,7.7,1.6s5.4-.5,7.8-1.6c2.4-1.1,4.5-2.5,6.3-4.3,1.8-1.8,3.2-3.9,4.3-6.3,1-2.4,1.5-5,1.5-7.7s-.5-5.4-1.5-7.8c-1-2.4-2.4-4.5-4.3-6.3-1.8-1.8-3.9-3.2-6.3-4.2s-5-1.5-7.8-1.5-5.3.5-7.7,1.5-4.5,2.4-6.3,4.2c-1.8,1.8-3.2,3.9-4.3,6.3-1.1,2.4-1.6,5-1.6,7.8Z"/>
    <path class="st11" d="M921.8,785.2c0,2-.7,3.7-2,5-1.4,1.3-3.1,2-5.1,2s-3.7-.7-5.1-2c-1.4-1.3-2.1-3-2.1-5v-77.9c0-2,.7-3.7,2.1-5,1.4-1.3,3.1-2,5.1-2s3.7.7,5.1,2c1.4,1.3,2,3,2,5v77.9Z"/>
    <path class="st21" d="M947.7,761.1c-2.7-1.2-5.1-2.5-7.3-4.1s-3.8-3.4-5.1-5.5c-1.3-2.1-1.9-4.6-1.9-7.5s.7-5.8,2-8.2c1.3-2.4,3.1-4.5,5.2-6.2,2.2-1.7,4.7-3,7.5-4,2.9-.9,5.8-1.4,8.9-1.4s4.1.2,6.2.6,4.1,1,6,1.8c1.9.8,3.6,1.8,5.2,3s2.7,2.6,3.5,4.3c.7,1.4.9,2.7.7,3.9-.2,1.2-.7,2.3-1.5,3.1-.9,1-1.9,1.6-3.2,2-1.3.4-2.6.3-3.8-.3-1-.7-2-1.4-2.9-2.1-.9-.7-1.8-1.3-2.8-1.8-.9-.5-1.9-1-2.9-1.3-1-.3-2.2-.5-3.5-.5-2.9,0-5.4.6-7.3,1.7-2,1.1-2.9,2.8-2.9,5.1s.3,2.2.9,3c.6.9,1.5,1.6,2.6,2.3,1.1.7,2.4,1.3,3.8,1.8,1.5.6,3.1,1.1,4.9,1.6,2.9.9,5.6,1.9,8.2,2.9,2.6,1.1,4.9,2.3,6.9,3.9,2,1.5,3.6,3.4,4.7,5.5,1.2,2.2,1.8,4.8,1.8,7.8s-.6,5.5-1.8,8c-1.2,2.5-2.9,4.6-5.1,6.4s-4.7,3.3-7.7,4.3c-2.9,1.1-6.1,1.6-9.6,1.6s-4.6-.2-7-.7c-2.4-.5-4.7-1.2-7-2.2-2.2-1-4.3-2.3-6.1-3.8-1.8-1.5-3.3-3.4-4.5-5.6-.8-1.4-1.1-2.7-1.1-3.9,0-1.2.3-2.3.9-3.2.6-.9,1.3-1.6,2.2-2.2.9-.6,2-.9,3.1-.9,1.2,0,2.3.2,3.5.7,1.2.5,2.3,1.4,3.3,2.7,1.5,2.3,3.3,3.9,5.2,4.9s4.4,1.5,7.4,1.5,2.6-.2,3.8-.5c1.2-.3,2.4-.8,3.3-1.4,1-.6,1.8-1.3,2.3-2.2.6-.9.9-1.9.9-3.1s-.4-2.6-1.2-3.5c-.8-1-1.7-1.8-2.9-2.4-1.1-.6-2.4-1.2-3.8-1.6-1.4-.4-2.6-.8-3.8-1.2-2.9-1-5.7-2.1-8.4-3.3Z"/>
  </g>
  <g>
    <path class="st25" d="M176.3,890.6c-1.2,0-2.5-.1-3.8-.3-1.3-.2-2.5-.5-3.6-.8-1.1-.3-2-.6-2.6-.8v-4.4l3.8.9c1.3.5,2.5.8,3.4,1s2,.3,3.2.3,2.7-.3,3.8-.8c1.1-.5,1.9-1.3,2.5-2.2.6-.9.9-2,.9-3.2s-.2-2.1-.7-2.8c-.5-.7-1.1-1.3-2-1.7-.8-.4-1.7-.8-2.7-1.1-1-.3-2-.6-3.1-1-1.3-.5-2.7-1-4-1.7-1.3-.7-2.3-1.6-3.2-2.8s-1.2-2.7-1.2-4.6.4-3.6,1.4-5.2c.9-1.5,2.2-2.7,3.8-3.5,1.6-.9,3.6-1.3,5.8-1.3s3,.2,4.7.5c1.7.3,3.3.8,4.9,1.5v3.6l-3.7-.7c-1-.3-2.1-.5-3.1-.7-1-.2-1.9-.2-2.7-.2-2,0-3.6.5-4.8,1.5-1.2,1-1.8,2.3-1.8,3.9s.4,2.4,1.3,3.2c.8.8,1.9,1.4,3.2,1.8,1.3.5,2.6.9,4,1.4,1.5.5,2.9,1.1,4.2,1.9,1.3.7,2.3,1.7,3.1,2.8.8,1.2,1.2,2.7,1.2,4.6s-.5,3.9-1.4,5.6c-1,1.7-2.3,3-4.1,3.9-1.8.9-3.9,1.4-6.5,1.4ZM170.3,885.6l-4-1.2v-4.5h2.3c.3,0,.5,0,.7.2.2.1.3.3.3.6l.7,4.9ZM183.5,859.1l4,1.2v4.5h-2.3c-.3,0-.5,0-.7-.2-.2-.1-.3-.3-.4-.6l-.7-4.9Z"/>
    <path class="st25" d="M201.2,890.6c-2,0-3.5-.5-4.5-1.6-1.1-1.1-1.6-2.7-1.6-4.7v-15.2h-3c-.3,0-.5,0-.7-.2-.2-.2-.3-.4-.3-.7v-1.7l4.1-.5,1-7.7c0-.6.4-.8,1-.8h2.2v8.5h7.1v3.2h-7.1v14.9c0,1,.3,1.8.8,2.3.5.5,1.2.8,2,.8s.8,0,1.2-.3c.4-.2.8-.4,1.2-.6.4-.2.6-.3.8-.3s.4.1.6.4l1.3,2.1c-.8.7-1.7,1.2-2.7,1.6-1.1.4-2.2.6-3.3.6Z"/>
    <path class="st25" d="M214.7,865.3l-.5,3.8-3.7-.8c-.3,0-.5-.2-.6-.3-.1-.2-.2-.4-.2-.7v-2h5ZM209.7,890.2v-2c0-.3,0-.5.2-.7.1-.2.3-.3.6-.3l3.7-.8.5,3.8h-5ZM213.3,890.2v-24.9h2.5c.5,0,.8,0,1,.3.2.2.3.5.3,1l.3,3.9c.9-1.7,1.9-3.1,3.1-4.1,1.2-1,2.7-1.5,4.4-1.5s1.3,0,1.9.2c.6.2,1.1.4,1.5.6l-.5,3.3c0,.2-.1.3-.3.4-.1,0-.3.1-.5.1s-.7,0-1.3-.2c-.7-.1-1.2-.2-1.7-.2-1.5,0-2.8.4-3.8,1.3-1,.9-1.9,2.2-2.6,3.8v15.9h-4.4ZM216.2,890.2l.5-3.8,3.7.8c.3,0,.5.1.6.3.1.2.2.4.2.7v2h-5Z"/>
    <path class="st25" d="M237.8,890.6c-1.3,0-2.5-.3-3.5-.8-1-.5-1.9-1.3-2.5-2.2-.6-1-.9-2.2-.9-3.6s.3-1.9.8-2.8c.5-.9,1.4-1.7,2.6-2.4,1.2-.7,2.8-1.3,4.7-1.7,1.9-.5,4.3-.7,7.1-.8v-1.9c0-1.9-.4-3.4-1.3-4.4-.8-1-2.1-1.5-3.7-1.5s-1.7.2-2.7.7c-.9.4-1.8.9-2.6,1.3-.8.4-1.4.7-1.9.7s-.5,0-.8-.2c-.2-.2-.4-.4-.5-.6l-.8-1.4c1.4-1.3,2.9-2.3,4.4-3,1.6-.7,3.3-1,5.3-1s3.4.4,4.7,1.2,2.2,1.9,2.9,3.3c.7,1.4,1,3.1,1,5v15.9h-1.9c-.4,0-.8,0-1-.2-.3-.1-.4-.4-.5-.8l-.5-2.3c-1.3,1.2-2.6,2.1-3.9,2.7-1.3.7-2.9,1-4.7,1ZM239.1,887.5c1.5,0,2.8-.3,3.9-.9,1.1-.6,2.2-1.4,3.2-2.5v-5.2c-1.7,0-3.2.2-4.6.4-1.4.2-2.5.5-3.5.9-1,.4-1.7.9-2.2,1.4-.5.6-.8,1.3-.8,2.1,0,1.3.4,2.3,1.2,2.8.8.6,1.7.9,2.9.9ZM248.9,890.2l.5-3.8,3.7.8c.3,0,.5.1.6.3.1.2.2.4.2.7v2h-5Z"/>
    <path class="st25" d="M265.3,890.6c-2,0-3.5-.5-4.5-1.6-1.1-1.1-1.6-2.7-1.6-4.7v-15.2h-3c-.3,0-.5,0-.7-.2-.2-.2-.3-.4-.3-.7v-1.7l4.1-.5,1-7.7c0-.6.4-.8,1-.8h2.2v8.5h7.1v3.2h-7.1v14.9c0,1,.3,1.8.8,2.3.5.5,1.2.8,2,.8s.8,0,1.2-.3c.4-.2.8-.4,1.2-.6.4-.2.6-.3.8-.3s.4.1.6.4l1.3,2.1c-.8.7-1.7,1.2-2.7,1.6-1.1.4-2.2.6-3.3.6Z"/>
    <path class="st25" d="M286,890.6c-2.4,0-4.5-.5-6.3-1.6-1.8-1.1-3.2-2.6-4.1-4.6-1-2-1.5-4.4-1.5-7.1s.5-4.4,1.4-6.3c.9-1.9,2.3-3.3,4-4.4,1.8-1.1,3.8-1.6,6.2-1.6s3.9.5,5.4,1.4c1.5.9,2.7,2.2,3.6,3.9.9,1.7,1.3,3.6,1.3,5.9s0,1.1-.2,1.4c-.1.2-.4.3-.9.3h-16.5v.6c.2,2.7.9,4.9,2.3,6.4,1.4,1.5,3.2,2.3,5.6,2.3s2-.2,3-.6c1-.4,1.9-.8,2.7-1.2.8-.4,1.3-.6,1.6-.6s.6.1.8.4l1.2,1.6c-.7.9-1.5,1.6-2.6,2.1-1.1.6-2.3,1-3.5,1.3-1.2.3-2.4.4-3.6.4ZM278.5,875.1h13.5c0-2-.6-3.7-1.7-5-1.1-1.3-2.7-1.9-4.6-1.9s-3.8.6-5,1.8c-1.2,1.2-2,2.9-2.3,5.1Z"/>
    <path class="st25" d="M309,865c1.1,0,2.1.1,3,.3.9.2,1.8.6,2.6,1h6.7v1.6c0,.3,0,.5-.2.7-.2.2-.4.3-.8.4l-2.8.4c.6,1.1.8,2.3.8,3.6s-.4,3.1-1.2,4.2-1.9,2.1-3.3,2.8c-1.4.7-3,1-4.8,1s-1.2,0-1.7,0c-.5,0-1.1-.2-1.6-.3-.5.3-.9.7-1.2,1.1-.3.4-.4.7-.4,1.1,0,.6.3,1.1.8,1.4.5.3,1.2.5,2,.6s1.7.2,2.7.2c1,0,1.9,0,2.8.1,1.5.1,2.9.4,4.1.7,1.3.3,2.3.9,3,1.7.8.8,1.2,1.9,1.2,3.4s-.5,3-1.5,4.2c-1,1.3-2.4,2.3-4.1,3-1.8.7-3.7,1.1-6,1.1s-4.1-.3-5.7-.8-2.9-1.3-3.8-2.3c-.9-1-1.4-2.1-1.4-3.4s.4-2.3,1.2-3.2c.8-.9,1.8-1.5,3.2-2-.7-.3-1.2-.8-1.7-1.3-.4-.6-.6-1.3-.6-2.2s.3-1.5.9-2.3c.6-.8,1.4-1.4,2.3-1.9-1.2-.7-2.2-1.6-2.9-2.7-.7-1.1-1-2.5-1-4s.4-3.1,1.2-4.3c.8-1.2,1.9-2.1,3.4-2.7,1.4-.6,3-1,4.8-1ZM316.8,891.6c0-.9-.4-1.6-1.2-2-.8-.4-1.7-.7-2.8-.8-.4,0-.9-.1-1.5-.1-.7,0-1.4,0-2.1-.1-.8,0-1.5-.1-2.2-.2-.7,0-1.3-.1-1.7-.2-.9.5-1.7,1-2.3,1.6-.6.6-.9,1.4-.9,2.3s.3,1.5.9,2.1c.6.6,1.4,1.1,2.5,1.4,1.1.3,2.3.5,3.7.5s2.7-.2,3.9-.5,2-.8,2.7-1.5c.7-.7,1-1.5,1-2.4ZM309,878.1c1.7,0,3-.5,4-1.4.9-.9,1.4-2.1,1.4-3.6s-.5-2.7-1.4-3.6c-.9-.9-2.3-1.4-4-1.4s-3.1.5-4,1.4c-.9.9-1.4,2.1-1.4,3.6s.5,2.7,1.4,3.6c.9.9,2.3,1.4,4,1.4Z"/>
    <path class="st25" d="M328.8,865.3l-.5,3.8-3.7-.8c-.3,0-.5-.2-.6-.3-.1-.2-.2-.4-.2-.7v-2h5ZM323.8,890.2v-2c0-.3,0-.5.2-.7.1-.2.3-.3.6-.3l3.7-.8.5,3.8h-5ZM329.4,860.6c-.8,0-1.5-.3-2.2-.9-.6-.6-.9-1.3-.9-2.2s.3-1.6.9-2.2,1.3-.9,2.2-.9,1.6.3,2.2.9c.6.6.9,1.4.9,2.2s-.3,1.5-.9,2.2-1.4.9-2.2.9ZM327.3,890.2v-24.9h4.4v24.9h-4.4ZM330.2,890.2l.5-3.8,3.7.8c.3,0,.5.1.6.3.1.2.2.4.2.7v2h-5Z"/>
    <path class="st25" d="M348.5,890.6c-2.2,0-4.1-.5-5.7-1.6-1.7-1.1-2.9-2.6-3.9-4.5-.9-1.9-1.4-4.2-1.4-6.7s.4-4.7,1.3-6.6c.9-1.9,2.2-3.4,3.9-4.5s3.9-1.6,6.5-1.6,2.2.2,3.5.5c1.3.3,2.6.8,3.8,1.3v2.7h-2.6c-.7-.4-1.3-.6-2.1-.7-.7-.2-1.6-.2-2.5-.2-1.7,0-3.1.4-4.1,1.2-1.1.8-1.9,1.9-2.5,3.3-.6,1.4-.8,3.1-.8,5,0,2.8.6,5.1,1.9,6.8,1.2,1.7,3,2.6,5.4,2.6s2.3-.2,3.1-.6c.8-.4,1.5-.8,2-1.2.5-.4.9-.6,1.2-.6s.3,0,.5,0c.1,0,.3.2.4.3l1.2,1.6c-1.1,1.3-2.4,2.3-4,2.9-1.6.6-3.3.9-5.2.9ZM353.5,868.7l3.1.6v3.8h-1.6c-.3,0-.6,0-.7-.2-.2-.1-.3-.3-.3-.6l-.5-3.7Z"/>
    <path class="st25" d="M377.5,855l-.5,3.8-3.7-.8c-.3,0-.5-.2-.6-.3-.1-.2-.2-.4-.2-.7v-2h5ZM385.5,890.2l-11-35.2h4c.4,0,.8.1,1.1.3.3.2.5.5.6.8l7.3,24.4c.2.5.3.9.4,1.4,0,.5.2,1,.3,1.6.3-1.2.4-2,.5-2.4s.2-.6.2-.7l8.3-24.4c0-.3.3-.5.6-.8.3-.2.6-.4,1.1-.4h1.4c.8,0,1.4.4,1.6,1.1l8.2,24.4c.2.4.3.9.4,1.4.1.5.2,1,.4,1.6.1-.7.2-1.3.3-1.8,0-.5.2-.9.2-1.1l7.3-24.4c0-.3.3-.6.6-.8.3-.2.6-.3,1-.3h3.7l-11,35.2h-4.3l-8.9-26.8c0-.3-.1-.5-.2-.8s-.2-.6-.2-.9c0,0-.1.4-.2.8-.1.5-.2.8-.3.9l-8.9,26.8h-4.3ZM377.2,856.3v-1.2h3.7v1.2h-3.7ZM384.2,855v2c0,.3,0,.5-.2.7-.1.2-.3.3-.6.3l-3.7.8-.5-3.8h5ZM419.4,855l-.5,3.8-3.7-.8c-.3,0-.5-.2-.6-.3-.1-.2-.2-.4-.2-.7v-2h5ZM418.1,856.3v-1.2h3.7v1.2h-3.7ZM426.1,855v2c0,.3,0,.5-.2.7-.1.2-.3.3-.6.3l-3.7.8-.5-3.8h5Z"/>
    <path class="st25" d="M440.3,890.6c-2.4,0-4.5-.5-6.3-1.6-1.8-1.1-3.2-2.6-4.1-4.6-1-2-1.5-4.4-1.5-7.1s.5-4.4,1.4-6.3c.9-1.9,2.3-3.3,4-4.4,1.8-1.1,3.8-1.6,6.2-1.6s3.9.5,5.4,1.4c1.5.9,2.7,2.2,3.6,3.9.9,1.7,1.3,3.6,1.3,5.9s0,1.1-.2,1.4c-.1.2-.4.3-.9.3h-16.5v.6c.2,2.7.9,4.9,2.3,6.4,1.4,1.5,3.2,2.3,5.6,2.3s2-.2,3-.6c1-.4,1.9-.8,2.7-1.2.8-.4,1.3-.6,1.6-.6s.6.1.8.4l1.2,1.6c-.7.9-1.5,1.6-2.6,2.1-1.1.6-2.3,1-3.5,1.3-1.2.3-2.4.4-3.6.4ZM432.9,875.1h13.5c0-2-.6-3.7-1.7-5-1.1-1.3-2.7-1.9-4.6-1.9s-3.8.6-5,1.8c-1.2,1.2-2,2.9-2.3,5.1Z"/>
    <path class="st25" d="M460.7,890.6c-1.3,0-2.5-.3-3.5-.8-1-.5-1.9-1.3-2.5-2.2-.6-1-.9-2.2-.9-3.6s.3-1.9.8-2.8c.5-.9,1.4-1.7,2.6-2.4,1.2-.7,2.8-1.3,4.7-1.7,1.9-.5,4.3-.7,7.1-.8v-1.9c0-1.9-.4-3.4-1.3-4.4-.8-1-2.1-1.5-3.7-1.5s-1.7.2-2.7.7c-.9.4-1.8.9-2.6,1.3-.8.4-1.4.7-1.9.7s-.5,0-.8-.2c-.2-.2-.4-.4-.5-.6l-.8-1.4c1.4-1.3,2.9-2.3,4.4-3,1.6-.7,3.3-1,5.3-1s3.4.4,4.7,1.2,2.2,1.9,2.9,3.3c.7,1.4,1,3.1,1,5v15.9h-1.9c-.4,0-.8,0-1-.2-.3-.1-.4-.4-.5-.8l-.5-2.3c-1.3,1.2-2.6,2.1-3.9,2.7-1.3.7-2.9,1-4.7,1ZM462,887.5c1.5,0,2.8-.3,3.9-.9,1.1-.6,2.2-1.4,3.2-2.5v-5.2c-1.7,0-3.2.2-4.6.4-1.4.2-2.5.5-3.5.9-1,.4-1.7.9-2.2,1.4-.5.6-.8,1.3-.8,2.1,0,1.3.4,2.3,1.2,2.8.8.6,1.7.9,2.9.9ZM471.9,890.2l.5-3.8,3.7.8c.3,0,.5.1.6.3.1.2.2.4.2.7v2h-5Z"/>
    <path class="st25" d="M483.9,854.1l-.5,3.8-3.7-.8c-.3,0-.5-.2-.6-.3-.1-.2-.2-.4-.2-.7v-2h5ZM478.9,890.2v-2c0-.3,0-.5.2-.7.1-.2.3-.3.6-.3l3.7-.8.5,3.8h-5ZM482.4,890.2v-36.2h4.4v36.2h-4.4ZM485.3,890.2l.5-3.8,3.7.8c.3,0,.5.1.6.3.1.2.2.4.2.7v2h-5Z"/>
    <path class="st25" d="M501.9,890.6c-2,0-3.5-.5-4.5-1.6-1.1-1.1-1.6-2.7-1.6-4.7v-15.2h-3c-.3,0-.5,0-.7-.2-.2-.2-.3-.4-.3-.7v-1.7l4.1-.5,1-7.7c0-.6.4-.8,1-.8h2.2v8.5h7.1v3.2h-7.1v14.9c0,1,.3,1.8.8,2.3.5.5,1.2.8,2,.8s.8,0,1.2-.3c.4-.2.8-.4,1.2-.6.4-.2.6-.3.8-.3s.4.1.6.4l1.3,2.1c-.8.7-1.7,1.2-2.7,1.6-1.1.4-2.2.6-3.3.6Z"/>
    <path class="st25" d="M515.4,854.1l-.5,3.8-3.7-.8c-.3,0-.5-.2-.6-.3-.1-.2-.2-.4-.2-.7v-2h5ZM510.4,890.2v-2c0-.3,0-.5.2-.7.1-.2.3-.3.6-.3l3.7-.8.5,3.8h-5ZM513.9,890.2v-36.2h4.4v14.6c1.1-1.1,2.3-2,3.6-2.7,1.3-.7,2.8-1,4.4-1s3.4.4,4.6,1.2,2.2,1.9,2.8,3.3c.6,1.4,1,3.1,1,4.9v15.9h-4.4v-15.9c0-1.9-.4-3.3-1.3-4.4-.9-1-2.2-1.6-4-1.6s-2.5.3-3.6.9c-1.1.6-2.2,1.5-3.1,2.6v18.3h-4.4ZM516.8,890.2l.5-3.8,3.7.8c.3,0,.5.1.6.3.1.2.2.4.2.7v2h-5ZM533.2,890.2l.5-3.8,3.7.8c.3,0,.5.1.6.3.1.2.2.4.2.7v2h-5Z"/>
    <path class="st25" d="M555.8,898.7v-46.1h3.4v46.1h-3.4Z"/>
    <path class="st25" d="M588.5,890.2v-31.2h-11.4v-4h27.5v4h-11.3v31.2h-4.8ZM581.1,857.8l-.7,4.9c0,.3-.1.5-.3.6-.2.1-.4.2-.7.2h-2.3v-4.5l4-1.2ZM585,890.2v-2c0-.3,0-.5.2-.7.1-.2.3-.3.6-.3l3.7-.8.5,3.8h-5ZM591.8,890.2l.5-3.8,3.7.8c.3,0,.5.1.6.3.1.2.2.4.2.7v2h-5ZM600.6,857.8l4,1.2v4.5h-2.3c-.3,0-.5,0-.7-.2-.2-.1-.3-.3-.4-.6l-.7-4.9Z"/>
    <path class="st25" d="M612,865.3l-.5,3.8-3.7-.8c-.3,0-.5-.2-.6-.3-.1-.2-.2-.4-.2-.7v-2h5ZM606.9,890.2v-2c0-.3,0-.5.2-.7s.3-.3.6-.3l3.7-.8.5,3.8h-5ZM610.5,890.2v-24.9h2.5c.5,0,.8,0,1,.3.2.2.3.5.3,1l.3,3.9c.9-1.7,1.9-3.1,3.1-4.1,1.2-1,2.7-1.5,4.4-1.5s1.3,0,1.9.2c.6.2,1.1.4,1.5.6l-.5,3.3c0,.2-.1.3-.3.4-.1,0-.3.1-.5.1s-.7,0-1.3-.2c-.7-.1-1.2-.2-1.7-.2-1.5,0-2.8.4-3.8,1.3-1,.9-1.9,2.2-2.6,3.8v15.9h-4.4ZM613.4,890.2l.5-3.8,3.7.8c.3,0,.5.1.6.3.1.2.2.4.2.7v2h-5Z"/>
    <path class="st25" d="M631.6,865.3l-.5,3.8-3.7-.8c-.3,0-.5-.2-.6-.3-.1-.2-.2-.4-.2-.7v-2h5ZM638.5,890.6c-1.8,0-3.3-.4-4.6-1.2s-2.2-1.9-2.8-3.3c-.6-1.4-1-3-1-4.9v-15.9h4.4v15.9c0,1.9.4,3.4,1.3,4.4.9,1,2.2,1.5,4,1.5s2.5-.3,3.6-.9,2.2-1.4,3.1-2.5v-18.4h4.4v24.9h-2.6c-.7,0-1-.3-1.2-.9l-.3-2.7c-1.1,1.2-2.3,2.1-3.6,2.9s-2.9,1.1-4.6,1.1ZM647.9,865.3l-.5,3.8-3.7-.8c-.3,0-.5-.2-.6-.3-.1-.2-.2-.4-.2-.7v-2h5ZM649.4,890.2l.5-3.8,3.7.8c.3,0,.5.1.6.3s.2.4.2.7v2h-5Z"/>
    <path class="st25" d="M664.8,890.6c-1.2,0-2.5-.1-4-.4-1.5-.3-2.7-.6-3.8-1v-3.6l2.2.5c.4.3,1.1.6,2,.9.9.3,2,.5,3.3.5,1.9,0,3.2-.4,4.1-1.2.9-.8,1.3-1.7,1.3-2.8s-.3-1.7-.9-2.3c-.6-.5-1.4-.9-2.4-1.3s-2-.7-3.2-1c-1.2-.4-2.3-.9-3.2-1.4s-1.8-1.2-2.4-2-.9-1.9-.9-3.2.4-2.8,1.2-3.9c.8-1.1,1.8-2,3.1-2.6,1.3-.6,2.8-.9,4.5-.9s2,.1,3.2.3,2.4.6,3.8,1v2.9l-2.6-.3c-.7-.2-1.4-.4-2.1-.5-.7-.1-1.4-.2-2-.2-.9,0-1.8.1-2.5.4-.7.3-1.3.7-1.7,1.2-.4.5-.6,1.1-.6,1.8s.4,1.6,1.1,2.2c.7.5,1.6,1,2.6,1.3,1,.3,2,.6,2.9.9,1.1.3,2.1.8,3.1,1.3,1,.5,1.8,1.2,2.4,2.1.6.9.9,2,.9,3.3s-.4,2.8-1.2,4-1.8,2.1-3.2,2.8c-1.4.7-3,1-4.9,1ZM660.2,887.2l-3.1-.6v-3.8h1.6c.4,0,.6,0,.8.2s.2.3.3.6l.5,3.7ZM669.7,868.2l3.1.6v3.8h-1.6c-.3,0-.6,0-.7-.2-.2-.1-.3-.3-.3-.6l-.5-3.7Z"/>
    <path class="st25" d="M686.6,890.6c-2,0-3.5-.5-4.5-1.6-1.1-1.1-1.6-2.7-1.6-4.7v-15.2h-3c-.3,0-.5,0-.7-.2-.2-.2-.3-.4-.3-.7v-1.7l4.1-.5,1-7.7c0-.6.4-.8,1-.8h2.2v8.5h7.1v3.2h-7.1v14.9c0,1,.3,1.8.8,2.3s1.2.8,2,.8.8,0,1.2-.3c.4-.2.8-.4,1.2-.6.4-.2.6-.3.8-.3s.4.1.6.4l1.3,2.1c-.8.7-1.7,1.2-2.7,1.6-1.1.4-2.2.6-3.3.6Z"/>
    <path class="st25" d="M707.3,890.6c-2.4,0-4.5-.5-6.3-1.6-1.8-1.1-3.2-2.6-4.1-4.6-1-2-1.5-4.4-1.5-7.1s.5-4.4,1.4-6.3,2.3-3.3,4-4.4c1.8-1.1,3.8-1.6,6.2-1.6s3.9.5,5.4,1.4c1.5.9,2.7,2.2,3.6,3.9s1.3,3.6,1.3,5.9,0,1.1-.2,1.4c-.1.2-.4.3-.9.3h-16.5v.6c.2,2.7.9,4.9,2.3,6.4,1.4,1.5,3.2,2.3,5.6,2.3s2-.2,3-.6c1-.4,1.9-.8,2.7-1.2.8-.4,1.3-.6,1.6-.6s.6.1.8.4l1.2,1.6c-.7.9-1.5,1.6-2.6,2.1-1.1.6-2.3,1-3.5,1.3-1.2.3-2.4.4-3.6.4ZM699.9,875.1h13.5c0-2-.6-3.7-1.7-5-1.1-1.3-2.7-1.9-4.6-1.9s-3.8.6-5,1.8c-1.2,1.2-2,2.9-2.3,5.1Z"/>
    <path class="st25" d="M730.1,890.6c-2,0-3.7-.5-5.2-1.6-1.4-1-2.5-2.5-3.2-4.4-.7-1.9-1.1-4.1-1.1-6.7s.4-4.6,1.3-6.6c.9-1.9,2.1-3.5,3.7-4.7,1.6-1.2,3.5-1.7,5.8-1.7s2.8.3,3.9.8,2,1.2,2.9,2.2v-13.8h4.4v36.2h-2.6c-.7,0-1-.3-1.2-.9l-.4-3c-1.1,1.3-2.3,2.3-3.7,3.1-1.4.8-2.9,1.2-4.7,1.2ZM731.5,887c1.4,0,2.7-.3,3.8-1,1.1-.7,2.1-1.6,3-2.8v-12c-.8-1.1-1.7-1.8-2.7-2.3-.9-.4-2-.6-3.2-.6s-2.8.4-3.9,1.1c-1.1.7-1.9,1.8-2.5,3.2-.6,1.4-.8,3.1-.8,5.2,0,3,.5,5.3,1.5,6.8,1,1.6,2.6,2.4,4.8,2.4ZM739.7,854.1l-.5,3.8-3.7-.8c-.3,0-.5-.2-.6-.3-.1-.2-.2-.4-.2-.7v-2h5ZM741.1,890.2l.5-3.8,3.7.8c.3,0,.5.1.6.3s.2.4.2.7v2h-5Z"/>
    <path class="st25" d="M760.4,890.2v-2c0-.3,0-.5.2-.7s.3-.3.6-.3l3.7-.8.5,3.8h-5ZM761.9,890.2l14.1-35.2h4.8l14.1,35.2h-3.7c-.4,0-.8-.1-1-.3-.3-.2-.5-.5-.6-.8l-10.2-26.3c-.2-.5-.3-1-.5-1.5s-.4-1.1-.5-1.8c-.2.7-.4,1.3-.5,1.8-.2.6-.3,1.1-.5,1.5l-10.2,26.2c0,.3-.3.6-.6.8-.3.2-.6.3-1.1.3h-3.7ZM765.5,890.2v-3h2.6v3h-2.6ZM765.7,890.2l.5-3.8,3.7.8c.3,0,.5.1.6.3.1.2.2.4.2.7v2h-5ZM769.9,879.8l1.3-3.4h14.5l1.3,3.4h-17.1ZM786,890.2v-2c0-.3,0-.5.2-.7s.3-.3.6-.3l3.7-.8.5,3.8h-5ZM788.7,890.2v-3h2.6v3h-2.6ZM791.3,890.2l.5-3.8,3.7.8c.3,0,.5.1.6.3.1.2.2.4.2.7v2h-5Z"/>
    <path class="st25" d="M808,890.6c-2,0-3.7-.5-5.2-1.6-1.4-1-2.5-2.5-3.2-4.4-.7-1.9-1.1-4.1-1.1-6.7s.4-4.6,1.3-6.6c.9-1.9,2.1-3.5,3.7-4.7,1.6-1.2,3.5-1.7,5.8-1.7s2.8.3,3.9.8,2,1.2,2.9,2.2v-13.8h4.4v36.2h-2.6c-.7,0-1-.3-1.2-.9l-.4-3c-1.1,1.3-2.3,2.3-3.7,3.1-1.4.8-2.9,1.2-4.7,1.2ZM809.4,887c1.4,0,2.7-.3,3.8-1,1.1-.7,2.1-1.6,3-2.8v-12c-.8-1.1-1.7-1.8-2.7-2.3-.9-.4-2-.6-3.2-.6s-2.8.4-3.9,1.1c-1.1.7-1.9,1.8-2.5,3.2-.6,1.4-.8,3.1-.8,5.2,0,3,.5,5.3,1.5,6.8,1,1.6,2.6,2.4,4.8,2.4ZM817.6,854.1l-.5,3.8-3.7-.8c-.3,0-.5-.2-.6-.3-.1-.2-.2-.4-.2-.7v-2h5ZM819,890.2l.5-3.8,3.7.8c.3,0,.5.1.6.3s.2.4.2.7v2h-5Z"/>
    <path class="st25" d="M830.8,865.3l-.5,3.8-3.7-.8c-.3,0-.5-.2-.6-.3-.1-.2-.2-.4-.2-.7v-2h5ZM837.6,890.2l-10.2-24.9h3.6c.4,0,.7,0,.9.3.2.2.4.4.5.7l6.3,16c.2.4.3.9.5,1.5.1.6.3,1.2.5,2,.1-.6.3-1.1.4-1.7.1-.6.3-1.2.6-1.8l6.4-16c0-.3.3-.5.5-.7.2-.2.5-.3.8-.3h3.4l-10.2,24.9h-3.9ZM830.5,866.6v-1.2h3.7v1.2h-3.7ZM836.9,865.3v2c0,.3,0,.5-.2.7-.1.2-.3.3-.6.3l-3.7.8-.5-3.8h5ZM847.3,865.3l-.5,3.8-3.7-.8c-.3,0-.5-.2-.6-.3-.1-.2-.2-.4-.2-.7v-2h5ZM845.8,866.6v-1.2h3.7v1.2h-3.7ZM853.4,865.3v2c0,.3,0,.5-.2.7-.1.2-.3.3-.6.3l-3.7.8-.5-3.8h5Z"/>
    <path class="st25" d="M860.7,865.3l-.5,3.8-3.7-.8c-.3,0-.5-.2-.6-.3-.1-.2-.2-.4-.2-.7v-2h5ZM855.6,890.2v-2c0-.3,0-.5.2-.7s.3-.3.6-.3l3.7-.8.5,3.8h-5ZM861.3,860.6c-.8,0-1.5-.3-2.2-.9-.6-.6-.9-1.3-.9-2.2s.3-1.6.9-2.2,1.3-.9,2.2-.9,1.6.3,2.2.9c.6.6.9,1.4.9,2.2s-.3,1.5-.9,2.2-1.4.9-2.2.9ZM859.2,890.2v-24.9h4.4v24.9h-4.4ZM862.1,890.2l.5-3.8,3.7.8c.3,0,.5.1.6.3.1.2.2.4.2.7v2h-5Z"/>
    <path class="st25" d="M880.4,890.6c-2.2,0-4.1-.5-5.7-1.6-1.7-1.1-2.9-2.6-3.9-4.5s-1.4-4.2-1.4-6.7.4-4.7,1.3-6.6,2.2-3.4,3.9-4.5c1.7-1.1,3.9-1.6,6.5-1.6s2.2.2,3.5.5c1.3.3,2.6.8,3.8,1.3v2.7h-2.6c-.7-.4-1.3-.6-2.1-.7-.7-.2-1.6-.2-2.5-.2-1.7,0-3.1.4-4.1,1.2-1.1.8-1.9,1.9-2.5,3.3-.6,1.4-.8,3.1-.8,5,0,2.8.6,5.1,1.9,6.8,1.2,1.7,3,2.6,5.3,2.6s2.3-.2,3.1-.6c.8-.4,1.5-.8,2-1.2s.9-.6,1.2-.6.3,0,.5,0c.1,0,.3.2.4.3l1.2,1.6c-1.1,1.3-2.4,2.3-4,2.9-1.6.6-3.3.9-5.2.9ZM885.3,868.7l3.1.6v3.8h-1.6c-.3,0-.6,0-.7-.2-.2-.1-.3-.3-.3-.6l-.5-3.7Z"/>
    <path class="st25" d="M904.5,890.6c-2.4,0-4.5-.5-6.3-1.6-1.8-1.1-3.2-2.6-4.1-4.6-1-2-1.5-4.4-1.5-7.1s.5-4.4,1.4-6.3,2.3-3.3,4-4.4c1.8-1.1,3.8-1.6,6.2-1.6s3.9.5,5.4,1.4c1.5.9,2.7,2.2,3.6,3.9s1.3,3.6,1.3,5.9,0,1.1-.2,1.4c-.1.2-.4.3-.9.3h-16.5v.6c.2,2.7.9,4.9,2.3,6.4,1.4,1.5,3.2,2.3,5.6,2.3s2-.2,3-.6c1-.4,1.9-.8,2.7-1.2.8-.4,1.3-.6,1.6-.6s.6.1.8.4l1.2,1.6c-.7.9-1.5,1.6-2.6,2.1-1.1.6-2.3,1-3.5,1.3-1.2.3-2.4.4-3.6.4ZM897.1,875.1h13.5c0-2-.6-3.7-1.7-5-1.1-1.3-2.7-1.9-4.6-1.9s-3.8.6-5,1.8c-1.2,1.2-2,2.9-2.3,5.1Z"/>
  </g>
</svg>