<?xml version="1.0" encoding="UTF-8"?>
<svg id="Layer_1" xmlns="http://www.w3.org/2000/svg" version="1.1" xmlns:xlink="http://www.w3.org/1999/xlink" viewBox="0 0 1080 1080">
  <!-- Generator: Adobe Illustrator 29.7.0, SVG Export Plug-In . SVG Version: 2.1.1 Build 138)  -->
  <defs>
    <style>
      .st0 {
        fill: url(#linear-gradient8);
        filter: url(#drop-shadow-9);
      }

      .st1 {
        fill: url(#linear-gradient3);
        filter: url(#drop-shadow-4);
      }

      .st2 {
        fill: url(#linear-gradient10);
      }

      .st3 {
        fill: url(#linear-gradient21);
      }

      .st4 {
        fill: url(#linear-gradient9);
      }

      .st5 {
        fill: url(#linear-gradient18);
      }

      .st6 {
        fill: url(#linear-gradient6);
        filter: url(#drop-shadow-7);
      }

      .st7 {
        fill: url(#linear-gradient23);
      }

      .st8 {
        fill: url(#linear-gradient1);
        filter: url(#drop-shadow-2);
      }

      .st9 {
        fill: url(#linear-gradient11);
      }

      .st10 {
        fill: url(#linear-gradient16);
      }

      .st11 {
        fill: url(#linear-gradient24);
      }

      .st12 {
        fill: url(#linear-gradient22);
      }

      .st13 {
        fill: url(#linear-gradient19);
      }

      .st14 {
        fill: url(#linear-gradient7);
        filter: url(#drop-shadow-8);
      }

      .st15 {
        fill: url(#linear-gradient12);
      }

      .st16 {
        fill: url(#linear-gradient5);
        filter: url(#drop-shadow-6);
      }

      .st17 {
        fill: url(#linear-gradient);
        filter: url(#drop-shadow-1);
      }

      .st18 {
        fill: url(#linear-gradient20);
      }

      .st19 {
        fill: url(#linear-gradient2);
        filter: url(#drop-shadow-3);
      }

      .st20 {
        fill: url(#linear-gradient14);
      }

      .st21 {
        fill: url(#linear-gradient25);
      }

      .st22 {
        fill: url(#linear-gradient4);
        filter: url(#drop-shadow-5);
      }

      .st23 {
        fill: url(#linear-gradient15);
      }

      .st24 {
        fill: url(#linear-gradient17);
      }

      .st25 {
        fill: #193864;
      }

      .st26 {
        fill: url(#linear-gradient13);
      }
    </style>
    <linearGradient id="linear-gradient" x1="66" y1="564.1" x2="88.8" y2="564.1" gradientUnits="userSpaceOnUse">
      <stop offset="0" stop-color="#1c214e"/>
      <stop offset="1" stop-color="#1e2553"/>
    </linearGradient>
    <filter id="drop-shadow-1" x="55.3" y="512.7" width="51.8" height="116.6" filterUnits="userSpaceOnUse">
      <feOffset dx="3.7" dy="6.9"/>
      <feGaussianBlur result="blur" stdDeviation="4.8"/>
      <feFlood flood-color="#231f20" flood-opacity=".6"/>
      <feComposite in2="blur" operator="in"/>
      <feComposite in="SourceGraphic"/>
    </filter>
    <linearGradient id="linear-gradient1" x1="109.6" y1="636" x2="102" y2="552.8" gradientUnits="userSpaceOnUse">
      <stop offset="0" stop-color="#112246"/>
      <stop offset="1" stop-color="#1c3c6d"/>
    </linearGradient>
    <filter id="drop-shadow-2" x="83.4" y="539.4" width="51.8" height="114.2" filterUnits="userSpaceOnUse">
      <feOffset dx="3.7" dy="6.9"/>
      <feGaussianBlur result="blur1" stdDeviation="4.8"/>
      <feFlood flood-color="#231f20" flood-opacity=".6"/>
      <feComposite in2="blur1" operator="in"/>
      <feComposite in="SourceGraphic"/>
    </filter>
    <linearGradient id="linear-gradient2" x1="132.5" y1="659.2" x2="129.8" y2="566.7" gradientUnits="userSpaceOnUse">
      <stop offset="0" stop-color="#0a6daf"/>
      <stop offset="1" stop-color="#2189c9"/>
    </linearGradient>
    <filter id="drop-shadow-3" x="110.3" y="564.1" width="49.2" height="112.3" filterUnits="userSpaceOnUse">
      <feOffset dx="3.7" dy="6.9"/>
      <feGaussianBlur result="blur2" stdDeviation="4.8"/>
      <feFlood flood-color="#231f20" flood-opacity=".6"/>
      <feComposite in2="blur2" operator="in"/>
      <feComposite in="SourceGraphic"/>
    </filter>
    <linearGradient id="linear-gradient3" x1="155.2" y1="655.1" x2="149" y2="563.2" gradientUnits="userSpaceOnUse">
      <stop offset="0" stop-color="#191d49"/>
      <stop offset="1" stop-color="#16264d"/>
    </linearGradient>
    <filter id="drop-shadow-4" x="130.4" y="552.3" width="50.9" height="124.1" filterUnits="userSpaceOnUse">
      <feOffset dx="3.7" dy="6.9"/>
      <feGaussianBlur result="blur3" stdDeviation="4.8"/>
      <feFlood flood-color="#231f20" flood-opacity=".6"/>
      <feComposite in2="blur3" operator="in"/>
      <feComposite in="SourceGraphic"/>
    </filter>
    <linearGradient id="linear-gradient4" x1="154.3" y1="574.9" x2="148.3" y2="474.3" gradientUnits="userSpaceOnUse">
      <stop offset="0" stop-color="#1b4275"/>
      <stop offset="1" stop-color="#2d588a"/>
    </linearGradient>
    <filter id="drop-shadow-5" x="129.5" y="467.1" width="51.6" height="130.1" filterUnits="userSpaceOnUse">
      <feOffset dx="3.7" dy="6.9"/>
      <feGaussianBlur result="blur4" stdDeviation="4.8"/>
      <feFlood flood-color="#231f20" flood-opacity=".6"/>
      <feComposite in2="blur4" operator="in"/>
      <feComposite in="SourceGraphic"/>
    </filter>
    <linearGradient id="linear-gradient5" x1="180.5" y1="633.4" x2="174.6" y2="523.1" gradientUnits="userSpaceOnUse">
      <stop offset="0" stop-color="#213d73"/>
      <stop offset="1" stop-color="#1464a6"/>
    </linearGradient>
    <filter id="drop-shadow-6" x="156.3" y="515.4" width="50.9" height="136.6" filterUnits="userSpaceOnUse">
      <feOffset dx="3.7" dy="6.9"/>
      <feGaussianBlur result="blur5" stdDeviation="4.8"/>
      <feFlood flood-color="#231f20" flood-opacity=".6"/>
      <feComposite in2="blur5" operator="in"/>
      <feComposite in="SourceGraphic"/>
    </filter>
    <linearGradient id="linear-gradient6" x1="209.7" y1="609.5" x2="199.4" y2="478.7" gradientUnits="userSpaceOnUse">
      <stop offset="0" stop-color="#075fa8"/>
      <stop offset="1" stop-color="#31a2db"/>
    </linearGradient>
    <filter id="drop-shadow-7" x="181.8" y="472.4" width="54.5" height="157.4" filterUnits="userSpaceOnUse">
      <feOffset dx="3.7" dy="6.9"/>
      <feGaussianBlur result="blur6" stdDeviation="4.8"/>
      <feFlood flood-color="#231f20" flood-opacity=".6"/>
      <feComposite in2="blur6" operator="in"/>
      <feComposite in="SourceGraphic"/>
    </filter>
    <linearGradient id="linear-gradient7" x1="62.9" y1="497.8" x2="139.2" y2="497.8" gradientUnits="userSpaceOnUse">
      <stop offset="0" stop-color="#1a2141"/>
      <stop offset=".8" stop-color="#151c3d"/>
      <stop offset="1" stop-color="#12193b"/>
    </linearGradient>
    <filter id="drop-shadow-8" x="52.2" y="471.5" width="105.4" height="66.5" filterUnits="userSpaceOnUse">
      <feOffset dx="3.7" dy="6.9"/>
      <feGaussianBlur result="blur7" stdDeviation="4.8"/>
      <feFlood flood-color="#231f20" flood-opacity=".6"/>
      <feComposite in2="blur7" operator="in"/>
      <feComposite in="SourceGraphic"/>
    </filter>
    <linearGradient id="linear-gradient8" x1="107.9" y1="485.1" x2="204" y2="422.1" gradientUnits="userSpaceOnUse">
      <stop offset="0" stop-color="#0f1d3f"/>
      <stop offset=".1" stop-color="#0f2143"/>
      <stop offset=".3" stop-color="#112c52"/>
      <stop offset=".5" stop-color="#154069"/>
      <stop offset=".7" stop-color="#1a5b8a"/>
      <stop offset=".9" stop-color="#217db4"/>
      <stop offset="1" stop-color="#2696d2"/>
    </linearGradient>
    <filter id="drop-shadow-9" x="90.3" y="417.5" width="133.7" height="80.2" filterUnits="userSpaceOnUse">
      <feOffset dx="3.7" dy="6.9"/>
      <feGaussianBlur result="blur8" stdDeviation="4.8"/>
      <feFlood flood-color="#231f20" flood-opacity=".6"/>
      <feComposite in2="blur8" operator="in"/>
      <feComposite in="SourceGraphic"/>
    </filter>
    <linearGradient id="linear-gradient9" x1="304" y1="512.5" x2="316.8" y2="512.5" xlink:href="#linear-gradient3"/>
    <linearGradient id="linear-gradient10" x1="304" y1="473.5" x2="316.8" y2="473.5" xlink:href="#linear-gradient2"/>
    <linearGradient id="linear-gradient11" x1="606.4" y1="471.5" x2="619.4" y2="471.5" xlink:href="#linear-gradient2"/>
    <linearGradient id="linear-gradient12" x1="868.5" y1="471.5" x2="881.4" y2="471.5" xlink:href="#linear-gradient2"/>
    <linearGradient id="linear-gradient13" x1="356.6" y1="501.7" x2="410.6" y2="501.7" xlink:href="#linear-gradient3"/>
    <linearGradient id="linear-gradient14" x1="401.2" y1="511.9" x2="456.8" y2="511.9" xlink:href="#linear-gradient3"/>
    <linearGradient id="linear-gradient15" x1="465.1" y1="522.7" x2="520.7" y2="522.7" xlink:href="#linear-gradient3"/>
    <linearGradient id="linear-gradient16" x1="560.3" y1="501.7" x2="602.7" y2="501.7" xlink:href="#linear-gradient3"/>
    <linearGradient id="linear-gradient17" x1="607.1" y1="511.5" x2="618.7" y2="511.5" xlink:href="#linear-gradient3"/>
    <linearGradient id="linear-gradient18" x1="630.3" y1="511.6" x2="679.6" y2="511.6" xlink:href="#linear-gradient3"/>
    <linearGradient id="linear-gradient19" x1="687.4" y1="511.9" x2="743" y2="511.9" xlink:href="#linear-gradient3"/>
    <linearGradient id="linear-gradient20" x1="754.6" y1="511.6" x2="803.9" y2="511.6" xlink:href="#linear-gradient3"/>
    <linearGradient id="linear-gradient21" x1="811.6" y1="511.8" x2="860.8" y2="511.8" xlink:href="#linear-gradient3"/>
    <linearGradient id="linear-gradient22" x1="869.2" y1="511.5" x2="880.8" y2="511.5" xlink:href="#linear-gradient3"/>
    <linearGradient id="linear-gradient23" x1="889.1" y1="511.9" x2="944.7" y2="511.9" xlink:href="#linear-gradient3"/>
    <linearGradient id="linear-gradient24" x1="956.3" y1="501.7" x2="967.9" y2="501.7" xlink:href="#linear-gradient3"/>
    <linearGradient id="linear-gradient25" x1="976" y1="511.8" x2="1016.4" y2="511.8" xlink:href="#linear-gradient3"/>
  </defs>
  <g>
    <path class="st17" d="M88.6,520.4l-22.5,21.2v37.1c.4,2.8,1.5,7.1,4.2,11.6.4.7,1.9,3.1,6,7.2,2.8,2.8,6.8,6.5,12.4,10.4,0-29.2-.1-58.3-.2-87.5Z"/>
    <polygon class="st8" points="94 612.9 116.8 632.1 116.8 567.4 94.1 546.8 94 612.9"/>
    <path class="st19" d="M121,571.6c6.7,5.7,13.4,11.3,20.2,17v66.3l-20.2-18.2v-65.1Z"/>
    <polygon class="st1" points="162.9 634.8 141.2 655 141.2 575.7 162.8 559.8 162.9 634.8"/>
    <path class="st22" d="M140.2,474.8c7.6,7.4,15.1,14.7,22.7,22.1,0,21,0,42,0,62.9l-21.6,15.9-1-100.9Z"/>
    <polygon class="st16" points="167.2 523 188.8 542.7 188.8 612.1 167.1 630.5 167.2 523"/>
    <path class="st6" d="M193,608.3l11.6-8.9c2.5-1.7,7.5-5.6,10.6-12.4,1.8-3.9,2.4-7.5,2.7-10v-73l-25.5-23.9.6,128.2Z"/>
    <polygon class="st14" points="66 507.7 62.9 504.9 93.5 479 139.2 513.4 135.9 516.6 93.4 484.3 66 507.7"/>
    <path class="st0" d="M104.6,476l-3.5-3.1,41.7-36.2,26,19.7,28.4-23.6v-.9l-2.1.5-10.1,3.7-4.8-4.7,25.5-6.4-9.5,27.6h-1.3c0,0-3-4.3-3-4.3l-.2-3.5c.5,0,.8.2.9.3,0,0,.4.3.6,2.2l2.1-7.5-25.7,22.9-26.5-19.9-38.5,33.2Z"/>
  </g>
  <g>
    <g>
      <g>
        <path class="st4" d="M316.8,539h-12.8v-50.5c.6-.5,2.8-2.5,6.3-2.5,3.5,0,5.8,1.7,6.4,2.2v50.8Z"/>
        <path class="st2" d="M316.8,470c-2.1-1.9-4.3-3.7-6.4-5.6-2.1,1.9-4.3,3.7-6.4,5.6v12.8c.8-.6,3.1-2,6.4-2s3.7.1,6.4,2v-12.8Z"/>
      </g>
      <path class="st9" d="M606.9,469c.3-.8.8-1.5,1.4-2.1.6-.6,1.3-1,2-1.4.8-.3,1.6-.5,2.5-.5s1.7.2,2.5.5c.8.3,1.5.8,2,1.4s1,1.3,1.4,2.1c.3.8.5,1.6.5,2.5s-.2,1.7-.5,2.5c-.3.8-.8,1.5-1.4,2-.6.6-1.3,1-2,1.4-.8.3-1.6.5-2.5.5s-1.7-.2-2.5-.5c-.8-.3-1.5-.8-2-1.4-.6-.6-1.1-1.3-1.4-2-.3-.8-.5-1.6-.5-2.5s.2-1.7.5-2.5Z"/>
      <path class="st15" d="M869,469c.3-.8.8-1.5,1.4-2.1.6-.6,1.3-1,2-1.4.8-.3,1.6-.5,2.5-.5s1.7.2,2.5.5c.8.3,1.5.8,2,1.4.6.6,1,1.3,1.4,2.1.3.8.5,1.6.5,2.5s-.2,1.7-.5,2.5c-.3.8-.8,1.5-1.4,2-.6.6-1.3,1-2,1.4-.8.3-1.6.5-2.5.5s-1.7-.2-2.5-.5c-.8-.3-1.5-.8-2-1.4-.6-.6-1.1-1.3-1.4-2-.3-.8-.5-1.6-.5-2.5s.2-1.7.5-2.5Z"/>
      <path class="st26" d="M389.2,475.9v57.4c0,1.6-.6,3-1.7,4.1-1.1,1.1-2.5,1.6-4.1,1.6s-3-.5-4-1.6c-1-1.1-1.5-2.4-1.5-4.1v-57.4h-15.5c-1.6,0-3-.6-4.1-1.7-1.1-1.1-1.6-2.5-1.6-4.1s.5-3,1.6-4.1c1.1-1.1,2.4-1.7,4.1-1.7h42.5c1.6,0,3,.6,4.1,1.7,1.1,1.1,1.7,2.5,1.7,4.1s-.1,1.6-.4,2.3c-.3.7-.7,1.3-1.2,1.8-.5.5-1.1.9-1.8,1.2-.7.3-1.5.4-2.3.4h-15.6Z"/>
      <path class="st20" d="M401.2,511.9c0-3.9.7-7.5,2.2-10.8,1.5-3.4,3.5-6.3,6-8.8,2.5-2.5,5.5-4.5,8.9-6,3.4-1.5,7-2.2,10.8-2.2s7.4.7,10.7,2.2c3.3,1.4,6.3,3.4,8.8,5.9,2.5,2.5,4.5,5.4,6,8.8,1.5,3.3,2.2,6.9,2.3,10.7v21.4c0,.8-.2,1.6-.5,2.3-.3.7-.7,1.4-1.3,1.9-.5.5-1.2,1-1.9,1.3-.7.3-1.5.5-2.3.5-1.6,0-2.8-.5-3.9-1.5-1-1-1.6-2.3-1.8-3.7-2.3,1.9-4.8,3.3-7.5,4.4-2.7,1.1-5.6,1.6-8.6,1.6s-7.4-.7-10.8-2.2c-3.4-1.5-6.3-3.5-8.9-6-2.5-2.5-4.5-5.5-6-8.8-1.5-3.4-2.2-7-2.2-10.8ZM412.8,511.9c0,2.2.4,4.3,1.3,6.3.9,2,2,3.7,3.5,5.1,1.5,1.5,3.2,2.6,5.1,3.5,2,.9,4.1,1.3,6.3,1.3s4.4-.4,6.3-1.3c2-.9,3.7-2,5.1-3.5,1.5-1.5,2.6-3.2,3.4-5.1.8-2,1.3-4.1,1.3-6.3s-.4-4.4-1.3-6.3c-.8-1.9-2-3.7-3.4-5.1-1.5-1.5-3.2-2.6-5.1-3.4-2-.8-4.1-1.3-6.3-1.3s-4.3.4-6.3,1.3c-2,.8-3.7,2-5.1,3.4-1.5,1.5-2.6,3.2-3.5,5.1-.9,1.9-1.3,4.1-1.3,6.3Z"/>
      <path class="st23" d="M520.6,510.2c0,.3,0,.6,0,.8,0,.3,0,.5,0,.8s0,.6,0,.9c0,.3,0,.6,0,.9v20c0,4-.8,7.6-2.3,11-1.5,3.4-3.4,6.3-5.9,8.8-2.5,2.5-5.4,4.4-8.8,5.8-3.4,1.4-7,2.1-10.8,2.1s-7.1-.6-10.4-1.9c-3.3-1.3-6.1-3.1-8.5-5.6-.7-.7-1.2-1.4-1.6-2.2s-.5-1.6-.6-2.4c0-.8.1-1.6.4-2.3s.8-1.4,1.4-1.9c.9-.8,1.8-1.3,2.7-1.5.9-.2,1.7-.2,2.4,0,.8.2,1.5.5,2.2,1,.7.4,1.3.9,1.9,1.4,1.8,1.4,3.5,2.4,5.4,3,1.8.6,3.7.8,5.7.7,2,0,3.9-.5,5.7-1.3,1.8-.8,3.3-1.9,4.7-3.2,1.3-1.3,2.4-2.9,3.2-4.7.8-1.8,1.3-3.7,1.5-5.6-2.3,1.6-4.8,2.9-7.5,3.7-2.7.9-5.6,1.3-8.5,1.3s-7.4-.7-10.8-2.2c-3.4-1.5-6.3-3.5-8.9-6-2.5-2.5-4.5-5.5-6-8.8-1.5-3.4-2.2-7-2.2-10.8s.7-7.5,2.2-10.8c1.5-3.4,3.5-6.3,6-8.8,2.5-2.5,5.5-4.5,8.9-6,3.4-1.5,7-2.2,10.8-2.2s5.9.5,8.6,1.4c2.7.9,5.2,2.2,7.5,3.8.2-1.5.8-2.7,1.9-3.7s2.4-1.5,3.9-1.5,3,.5,4.1,1.6c1.1,1.1,1.7,2.5,1.7,4.1v20.4ZM476.7,511.9c0,2.2.4,4.3,1.3,6.3.9,2,2,3.7,3.5,5.1,1.5,1.5,3.2,2.6,5.1,3.5,2,.9,4.1,1.3,6.3,1.3s4.2-.4,6-1.2c1.9-.8,3.5-1.8,5-3.2,1.4-1.3,2.6-2.9,3.5-4.7.9-1.8,1.4-3.7,1.6-5.8v-2.7c-.2-2.1-.7-4.1-1.6-5.8-.9-1.8-2.1-3.4-3.5-4.7-1.4-1.3-3.1-2.4-5-3.1-1.9-.8-3.9-1.1-6-1.1s-4.3.4-6.3,1.3c-2,.8-3.7,2-5.1,3.4-1.5,1.5-2.6,3.2-3.5,5.1-.9,1.9-1.3,4.1-1.3,6.3Z"/>
      <path class="st10" d="M597,464.4c.8,0,1.6.2,2.2.5.7.3,1.3.7,1.8,1.3s.9,1.1,1.2,1.8c.3.7.4,1.5.4,2.3,0,1.6-.5,3-1.6,4.1-1.1,1.1-2.4,1.7-4.1,1.7h-25.1v19.9h17.2c1.6,0,3,.6,4.1,1.7s1.7,2.5,1.7,4.1-.6,3-1.7,4-2.5,1.5-4.1,1.5h-17.2v26.1c0,.8-.2,1.6-.5,2.3-.3.7-.7,1.3-1.3,1.8-.5.5-1.1.9-1.8,1.2s-1.5.4-2.3.4-1.6-.1-2.3-.4-1.3-.7-1.8-1.2c-.5-.5-.9-1.1-1.2-1.8-.3-.7-.4-1.4-.4-2.2v-63.3c0-.6.1-1.3.3-1.9.2-.7.6-1.3,1-1.8.5-.5,1.1-1,1.8-1.3s1.6-.5,2.7-.5h30.9Z"/>
      <path class="st24" d="M618.7,533.3c0,1.6-.6,3-1.7,4.1-1.1,1.1-2.5,1.7-4.1,1.7s-1.5-.1-2.2-.4c-.7-.3-1.3-.7-1.9-1.2s-.9-1.1-1.3-1.8c-.3-.7-.5-1.5-.5-2.3v-43.4c0-.8.2-1.6.5-2.3.3-.7.7-1.3,1.3-1.8.5-.5,1.2-.9,1.9-1.3.7-.3,1.5-.5,2.3-.5s1.6.2,2.3.5c.7.3,1.3.7,1.8,1.3.5.5.9,1.1,1.2,1.8.3.7.4,1.5.4,2.3v43.4Z"/>
      <path class="st5" d="M679.6,511v22.4c0,1.6-.6,3-1.7,4.1-1.1,1.1-2.5,1.6-4.1,1.6s-3-.5-4.1-1.6c-1.1-1.1-1.7-2.4-1.7-4.1v-22.4c0-2.3-.3-4.4-.9-6.3-.6-1.9-1.4-3.5-2.4-4.8-1.1-1.3-2.4-2.4-3.9-3.1-1.5-.7-3.3-1.1-5.2-1.1s-3.8.4-5.4,1.1c-1.7.8-3.1,1.8-4.3,3.2-1.2,1.4-2.1,3-2.8,4.8-.7,1.8-1,3.8-1,6v22.5c0,1.6-.6,3-1.7,4.1-1.1,1.1-2.5,1.7-4.1,1.7s-1.5-.1-2.2-.4c-.7-.3-1.3-.7-1.9-1.2s-.9-1.1-1.3-1.8c-.3-.7-.5-1.5-.5-2.3v-43.4c0-.8.2-1.6.5-2.3.3-.7.7-1.3,1.3-1.8.5-.5,1.2-.9,1.9-1.3.7-.3,1.5-.5,2.3-.5s1.6.2,2.3.5c.7.3,1.3.7,1.8,1.3s.9,1.1,1.2,1.8c.3.7.4,1.5.4,2.3v.8c2.1-2,4.4-3.6,7-4.8,2.5-1.2,5.2-1.8,7.9-1.8s6.5.7,9.3,2c2.8,1.4,5.2,3.2,7.2,5.6,2,2.4,3.5,5.2,4.6,8.5,1.1,3.3,1.7,6.9,1.7,10.8Z"/>
      <path class="st13" d="M687.4,511.9c0-3.9.7-7.5,2.2-10.8,1.5-3.4,3.5-6.3,6-8.8,2.5-2.5,5.5-4.5,8.9-6,3.4-1.5,7-2.2,10.8-2.2s7.4.7,10.7,2.2c3.3,1.4,6.3,3.4,8.8,5.9,2.5,2.5,4.5,5.4,6,8.8,1.5,3.3,2.2,6.9,2.3,10.7v21.4c0,.8-.2,1.6-.5,2.3-.3.7-.7,1.4-1.3,1.9-.5.5-1.2,1-1.9,1.3-.7.3-1.5.5-2.3.5-1.6,0-2.8-.5-3.9-1.5-1-1-1.6-2.3-1.8-3.7-2.3,1.9-4.8,3.3-7.5,4.4-2.7,1.1-5.6,1.6-8.6,1.6s-7.4-.7-10.8-2.2c-3.4-1.5-6.3-3.5-8.9-6-2.5-2.5-4.5-5.5-6-8.8-1.5-3.4-2.2-7-2.2-10.8ZM699,511.9c0,2.2.4,4.3,1.3,6.3.9,2,2,3.7,3.5,5.1,1.5,1.5,3.2,2.6,5.1,3.5,2,.9,4.1,1.3,6.3,1.3s4.4-.4,6.3-1.3c2-.9,3.7-2,5.1-3.5,1.5-1.5,2.6-3.2,3.4-5.1.8-2,1.3-4.1,1.3-6.3s-.4-4.4-1.3-6.3c-.8-1.9-2-3.7-3.4-5.1-1.5-1.5-3.2-2.6-5.1-3.4-2-.8-4.1-1.3-6.3-1.3s-4.3.4-6.3,1.3c-2,.8-3.7,2-5.1,3.4-1.5,1.5-2.6,3.2-3.5,5.1-.9,1.9-1.3,4.1-1.3,6.3Z"/>
      <path class="st18" d="M803.9,511v22.4c0,1.6-.6,3-1.7,4.1-1.1,1.1-2.5,1.6-4.1,1.6s-3-.5-4.1-1.6c-1.1-1.1-1.7-2.4-1.7-4.1v-22.4c0-2.3-.3-4.4-.9-6.3-.6-1.9-1.4-3.5-2.4-4.8-1.1-1.3-2.4-2.4-3.9-3.1-1.5-.7-3.3-1.1-5.2-1.1s-3.8.4-5.4,1.1c-1.7.8-3.1,1.8-4.3,3.2-1.2,1.4-2.1,3-2.8,4.8-.7,1.8-1,3.8-1,6v22.5c0,1.6-.6,3-1.7,4.1-1.1,1.1-2.5,1.7-4.1,1.7s-1.5-.1-2.2-.4c-.7-.3-1.3-.7-1.9-1.2s-.9-1.1-1.3-1.8c-.3-.7-.5-1.5-.5-2.3v-43.4c0-.8.2-1.6.5-2.3.3-.7.7-1.3,1.3-1.8.5-.5,1.2-.9,1.9-1.3.7-.3,1.5-.5,2.3-.5s1.6.2,2.3.5c.7.3,1.3.7,1.8,1.3s.9,1.1,1.2,1.8c.3.7.4,1.5.4,2.3v.8c2.1-2,4.4-3.6,7-4.8,2.5-1.2,5.2-1.8,7.9-1.8s6.5.7,9.3,2c2.8,1.4,5.2,3.2,7.2,5.6,2,2.4,3.5,5.2,4.6,8.5,1.1,3.3,1.7,6.9,1.7,10.8Z"/>
      <path class="st3" d="M823.5,511.8h0c0,.1,0,.2,0,.2,0,2,.4,3.9,1.1,5.8.8,1.9,1.8,3.6,3.2,5.1,1.4,1.5,3,2.7,4.8,3.6,1.8.9,3.9,1.4,6,1.4,2,0,3.9-.2,5.7-.7,1.8-.5,3.6-1.6,5.4-3,.6-.5,1.2-.9,1.9-1.4.7-.4,1.4-.8,2.2-.9.8-.2,1.6-.2,2.4,0,.9.2,1.8.7,2.7,1.5.6.5,1.1,1.2,1.4,1.9.3.7.5,1.5.4,2.3,0,.8-.2,1.6-.6,2.4-.3.8-.9,1.5-1.6,2.2-2.4,2.5-5.2,4.3-8.5,5.6-3.3,1.3-6.8,1.9-10.4,1.9s-7.5-.7-10.9-2.1-6.4-3.4-8.9-5.8c-2.5-2.5-4.6-5.4-6-8.8-1.5-3.4-2.2-7-2.2-10.8h0c0,0,0-.2,0-.2h0c0-3.9.7-7.6,2.2-11,1.5-3.4,3.5-6.3,6-8.9,2.5-2.5,5.5-4.5,8.9-6,3.4-1.5,7-2.2,10.9-2.2s7.1.6,10.4,1.9c3.3,1.3,6.1,3.1,8.5,5.6.7.7,1.2,1.4,1.6,2.2.3.8.5,1.6.6,2.4,0,.8-.1,1.6-.4,2.3-.3.7-.8,1.4-1.4,1.9-.9.8-1.8,1.3-2.7,1.5s-1.7.2-2.4,0-1.5-.5-2.2-1c-.7-.4-1.3-.9-1.9-1.4-1.7-1.4-3.5-2.4-5.4-3-1.8-.5-3.7-.8-5.7-.8-2.1,0-4.1.6-6,1.5-1.8.9-3.5,2.1-4.8,3.6s-2.4,3.2-3.2,5.1-1.2,3.8-1.2,5.9Z"/>
      <path class="st12" d="M880.8,533.3c0,1.6-.6,3-1.7,4.1s-2.5,1.7-4.1,1.7-1.5-.1-2.2-.4c-.7-.3-1.3-.7-1.9-1.2s-.9-1.1-1.3-1.8c-.3-.7-.5-1.5-.5-2.3v-43.4c0-.8.2-1.6.5-2.3.3-.7.7-1.3,1.3-1.8.5-.5,1.2-.9,1.9-1.3.7-.3,1.5-.5,2.3-.5s1.6.2,2.3.5c.7.3,1.3.7,1.8,1.3.5.5.9,1.1,1.2,1.8.3.7.4,1.5.4,2.3v43.4Z"/>
      <path class="st7" d="M889.1,511.9c0-3.9.7-7.5,2.2-10.8,1.5-3.4,3.5-6.3,6-8.8,2.5-2.5,5.5-4.5,8.9-6,3.4-1.5,7-2.2,10.8-2.2s7.4.7,10.7,2.2c3.3,1.4,6.3,3.4,8.8,5.9,2.5,2.5,4.5,5.4,6,8.8,1.5,3.3,2.2,6.9,2.3,10.7v21.4c0,.8-.2,1.6-.5,2.3-.3.7-.7,1.4-1.3,1.9-.5.5-1.2,1-1.9,1.3-.7.3-1.5.5-2.3.5-1.6,0-2.8-.5-3.9-1.5-1-1-1.6-2.3-1.8-3.7-2.3,1.9-4.8,3.3-7.5,4.4-2.7,1.1-5.6,1.6-8.6,1.6s-7.4-.7-10.8-2.2c-3.4-1.5-6.3-3.5-8.9-6-2.5-2.5-4.5-5.5-6-8.8-1.5-3.4-2.2-7-2.2-10.8ZM900.7,511.9c0,2.2.4,4.3,1.3,6.3.9,2,2,3.7,3.5,5.1,1.5,1.5,3.2,2.6,5.1,3.5,2,.9,4.1,1.3,6.3,1.3s4.4-.4,6.3-1.3c2-.9,3.7-2,5.1-3.5,1.5-1.5,2.6-3.2,3.4-5.1.8-2,1.3-4.1,1.3-6.3s-.4-4.4-1.3-6.3c-.8-1.9-2-3.7-3.4-5.1-1.5-1.5-3.2-2.6-5.1-3.4-2-.8-4.1-1.3-6.3-1.3s-4.3.4-6.3,1.3c-2,.8-3.7,2-5.1,3.4-1.5,1.5-2.6,3.2-3.5,5.1-.9,1.9-1.3,4.1-1.3,6.3Z"/>
      <path class="st11" d="M967.9,533.3c0,1.6-.6,3-1.7,4.1-1.1,1.1-2.5,1.6-4.1,1.6s-3-.5-4.1-1.6c-1.1-1.1-1.7-2.4-1.7-4.1v-63.2c0-1.6.6-3,1.7-4.1,1.1-1.1,2.5-1.6,4.1-1.6s3,.5,4.1,1.6c1.1,1.1,1.7,2.4,1.7,4.1v63.2Z"/>
      <path class="st21" d="M988.9,513.8c-2.2-1-4.2-2.1-5.9-3.3-1.7-1.3-3.1-2.8-4.1-4.5-1-1.7-1.5-3.7-1.5-6.1s.5-4.7,1.6-6.7c1.1-2,2.5-3.7,4.3-5,1.8-1.4,3.8-2.4,6.1-3.2,2.3-.8,4.7-1.1,7.2-1.1s3.3.2,5,.5,3.3.8,4.9,1.5c1.6.6,3,1.5,4.2,2.4s2.2,2.1,2.9,3.5c.5,1.1.7,2.2.6,3.2-.2,1-.6,1.8-1.2,2.5-.7.8-1.6,1.3-2.6,1.6-1.1.3-2.1.2-3.1-.3-.8-.6-1.6-1.2-2.3-1.7-.7-.6-1.5-1.1-2.2-1.5-.8-.4-1.6-.8-2.4-1.1-.8-.3-1.8-.4-2.8-.4-2.4,0-4.4.4-5.9,1.3-1.6.9-2.4,2.3-2.4,4.1s.3,1.8.8,2.4c.5.7,1.2,1.3,2.1,1.9.9.5,1.9,1,3.1,1.5,1.2.4,2.5.9,4,1.3,2.3.7,4.5,1.5,6.7,2.4,2.1.9,4,1.9,5.6,3.1,1.6,1.2,2.9,2.7,3.8,4.5,1,1.7,1.4,3.9,1.4,6.4s-.5,4.5-1.5,6.5c-1,2-2.4,3.7-4.1,5.2-1.8,1.5-3.8,2.6-6.2,3.5-2.4.9-5,1.3-7.8,1.3s-3.7-.2-5.7-.6c-2-.4-3.8-1-5.7-1.8-1.8-.8-3.5-1.8-5-3.1-1.5-1.3-2.7-2.8-3.6-4.5-.6-1.1-.9-2.2-.9-3.2,0-1,.3-1.9.7-2.6.4-.7,1-1.3,1.8-1.8.8-.4,1.6-.7,2.5-.8.9,0,1.9.1,2.9.6,1,.4,1.9,1.1,2.7,2.2,1.2,1.8,2.7,3.2,4.2,4,1.6.8,3.6,1.3,6,1.3s2.1-.1,3.1-.4c1-.3,1.9-.7,2.7-1.1.8-.5,1.4-1.1,1.9-1.8.5-.7.7-1.5.7-2.5s-.3-2.1-.9-2.9c-.6-.8-1.4-1.4-2.3-2-.9-.5-2-1-3.1-1.3-1.1-.3-2.1-.7-3.1-1-2.3-.8-4.6-1.7-6.8-2.7Z"/>
    </g>
    <g>
      <path class="st25" d="M303.6,618.9c-1,0-2,0-3.1-.3s-2-.4-2.9-.6c-.9-.2-1.6-.5-2.1-.6v-3.5l3.1.8c1.1.4,2,.7,2.8.8s1.6.2,2.6.2,2.2-.2,3.1-.6,1.5-1,2-1.8c.5-.8.7-1.6.7-2.6s-.2-1.7-.6-2.3c-.4-.6-.9-1.1-1.6-1.4-.7-.4-1.4-.7-2.2-.9-.8-.3-1.6-.5-2.5-.8-1.1-.4-2.2-.8-3.2-1.4s-1.9-1.3-2.6-2.2c-.7-.9-1-2.2-1-3.8s.4-3,1.1-4.2c.7-1.2,1.8-2.2,3.1-2.9,1.3-.7,2.9-1,4.7-1s2.4.1,3.8.4,2.7.7,4,1.2v2.9l-3-.6c-.9-.2-1.7-.4-2.5-.6s-1.6-.2-2.2-.2c-1.6,0-2.9.4-3.9,1.2-1,.8-1.4,1.9-1.4,3.1s.3,2,1,2.6c.7.6,1.5,1.1,2.6,1.5,1,.4,2.1.8,3.2,1.2,1.2.4,2.4.9,3.4,1.5,1,.6,1.9,1.3,2.5,2.3.6.9.9,2.2.9,3.8s-.4,3.2-1.2,4.5c-.8,1.3-1.9,2.4-3.3,3.2-1.4.8-3.2,1.2-5.2,1.2ZM298.7,614.8l-3.3-1v-3.6h1.8c.2,0,.4,0,.6.1.2,0,.3.3.3.5l.6,4ZM309.4,593.3l3.3,1v3.6h-1.8c-.2,0-.4,0-.5-.1-.1,0-.2-.3-.3-.5l-.6-4Z"/>
      <path class="st25" d="M323.8,618.9c-1.6,0-2.8-.4-3.7-1.3-.9-.9-1.3-2.2-1.3-3.8v-12.3h-2.4c-.2,0-.4,0-.5-.2s-.2-.3-.2-.6v-1.4l3.3-.4.8-6.2c0-.5.3-.7.8-.7h1.8v6.9h5.8v2.6h-5.8v12.1c0,.9.2,1.5.6,1.9.4.4.9.6,1.6.6s.6,0,1-.2c.3-.2.7-.3,1-.5.3-.2.5-.2.6-.2s.3.1.5.3l1,1.7c-.6.6-1.3,1-2.2,1.3-.9.3-1.7.5-2.6.5Z"/>
      <path class="st25" d="M334.7,598.4l-.4,3.1-3-.6c-.2,0-.4-.1-.5-.3s-.2-.3-.2-.6v-1.6h4.1ZM330.7,618.6v-1.6c0-.2,0-.4.2-.6s.3-.2.5-.3l3-.6.4,3.1h-4.1ZM333.5,618.6v-20.2h2c.4,0,.7,0,.8.2s.3.4.3.8l.2,3.1c.7-1.4,1.5-2.5,2.5-3.3s2.2-1.2,3.6-1.2,1.1,0,1.5.2c.4.1.9.3,1.2.5l-.4,2.7c0,.2,0,.3-.2.4-.1,0-.3.1-.4.1s-.5,0-1.1-.2c-.5-.1-1-.2-1.4-.2-1.2,0-2.3.4-3.1,1.1-.8.7-1.5,1.8-2.1,3.1v12.9h-3.5ZM335.9,618.6l.4-3.1,3,.6c.2,0,.4.1.5.3s.2.3.2.6v1.6h-4.1Z"/>
      <path class="st25" d="M353.5,618.9c-1.1,0-2-.2-2.9-.6-.9-.4-1.5-1-2-1.8-.5-.8-.8-1.8-.8-2.9s.2-1.6.7-2.3c.4-.7,1.1-1.4,2.1-2,1-.6,2.3-1,3.8-1.4,1.6-.4,3.5-.6,5.8-.6v-1.6c0-1.6-.3-2.8-1-3.6-.7-.8-1.7-1.2-3-1.2s-1.4.2-2.2.5c-.8.4-1.5.7-2.1,1.1-.6.4-1.1.5-1.5.5s-.4,0-.6-.2-.3-.3-.4-.5l-.6-1.1c1.1-1.1,2.3-1.9,3.6-2.4,1.3-.5,2.7-.8,4.3-.8s2.8.3,3.8,1c1,.6,1.8,1.5,2.4,2.7.5,1.1.8,2.5.8,4v12.9h-1.6c-.3,0-.6,0-.8-.2-.2-.1-.4-.3-.4-.7l-.4-1.9c-1.1,1-2.1,1.7-3.2,2.2s-2.3.8-3.8.8ZM354.5,616.4c1.2,0,2.2-.2,3.1-.7.9-.5,1.8-1.1,2.6-2v-4.2c-1.4,0-2.6.1-3.7.3-1.1.2-2.1.4-2.8.7-.8.3-1.4.7-1.8,1.2-.4.5-.6,1-.6,1.7,0,1.1.3,1.8.9,2.3.6.5,1.4.7,2.3.7ZM362.5,618.6l.4-3.1,3,.6c.2,0,.4.1.5.3s.2.3.2.6v1.6h-4.1Z"/>
      <path class="st25" d="M375.8,618.9c-1.6,0-2.8-.4-3.7-1.3-.9-.9-1.3-2.2-1.3-3.8v-12.3h-2.4c-.2,0-.4,0-.5-.2s-.2-.3-.2-.6v-1.4l3.3-.4.8-6.2c0-.5.3-.7.8-.7h1.8v6.9h5.8v2.6h-5.8v12.1c0,.9.2,1.5.6,1.9.4.4.9.6,1.6.6s.6,0,1-.2c.3-.2.7-.3,1-.5.3-.2.5-.2.6-.2s.3.1.5.3l1,1.7c-.6.6-1.3,1-2.2,1.3-.9.3-1.7.5-2.6.5Z"/>
      <path class="st25" d="M392.5,618.8c-1.9,0-3.6-.4-5.1-1.3-1.4-.9-2.6-2.1-3.4-3.7-.8-1.6-1.2-3.5-1.2-5.7s.4-3.6,1.2-5.1c.8-1.5,1.9-2.7,3.3-3.6,1.4-.9,3.1-1.3,5-1.3s3.1.4,4.4,1.1,2.2,1.8,2.9,3.1c.7,1.3,1.1,2.9,1.1,4.8s0,.9-.2,1.1-.4.3-.7.3h-13.4v.5c.1,2.2.8,4,1.9,5.2,1.1,1.2,2.6,1.9,4.5,1.9s1.6-.2,2.5-.5c.8-.3,1.5-.7,2.1-1s1.1-.5,1.3-.5.5.1.7.3l1,1.3c-.5.7-1.2,1.3-2.1,1.7-.9.5-1.8.8-2.8,1-1,.2-2,.3-2.9.3ZM386.5,606.3h11c0-1.6-.5-3-1.4-4-.9-1-2.1-1.6-3.7-1.6s-3.1.5-4.1,1.5-1.6,2.3-1.8,4.1Z"/>
      <path class="st25" d="M411.3,598c.9,0,1.7,0,2.4.3.8.2,1.5.5,2.1.8h5.5v1.3c0,.2,0,.4-.2.5-.1.1-.3.2-.6.3l-2.3.3c.5.9.7,1.9.7,2.9s-.3,2.5-1,3.4c-.7,1-1.6,1.7-2.7,2.3-1.1.5-2.4.8-3.9.8s-.9,0-1.4,0c-.4,0-.9-.1-1.3-.2-.4.3-.8.5-1,.9-.2.3-.3.6-.3.9,0,.5.2.9.6,1.1.4.2,1,.4,1.6.5.7,0,1.4.2,2.2.2s1.6,0,2.3.1c1.2.1,2.3.3,3.4.6,1,.3,1.8.7,2.5,1.4s.9,1.6.9,2.8-.4,2.4-1.2,3.4c-.8,1-1.9,1.8-3.4,2.4s-3,.9-4.8.9-3.3-.2-4.6-.7-2.4-1.1-3.1-1.9c-.7-.8-1.1-1.7-1.1-2.8s.3-1.9,1-2.6,1.5-1.3,2.6-1.7c-.6-.3-1-.6-1.4-1.1s-.5-1-.5-1.8.2-1.2.7-1.9c.5-.6,1.1-1.2,1.9-1.6-1-.6-1.8-1.3-2.4-2.2-.6-.9-.8-2-.8-3.2s.3-2.5,1-3.5c.7-1,1.6-1.7,2.7-2.2,1.2-.5,2.5-.8,3.9-.8ZM417.5,619.7c0-.8-.3-1.3-.9-1.7-.6-.3-1.4-.6-2.3-.7-.3,0-.7,0-1.2-.1-.5,0-1.1,0-1.7,0-.6,0-1.2,0-1.8-.1-.6,0-1-.1-1.4-.2-.7.4-1.4.8-1.8,1.3s-.7,1.1-.7,1.9.2,1.2.7,1.7c.5.5,1.2.9,2,1.1.9.3,1.9.4,3,.4s2.2-.1,3.1-.4c.9-.3,1.6-.7,2.2-1.2.5-.5.8-1.2.8-2ZM411.3,608.7c1.4,0,2.5-.4,3.2-1.1.8-.7,1.2-1.7,1.2-2.9s-.4-2.2-1.1-2.9c-.7-.7-1.8-1.1-3.3-1.1s-2.5.4-3.3,1.1c-.7.7-1.1,1.7-1.1,2.9s.4,2.2,1.2,2.9c.8.7,1.8,1.1,3.2,1.1Z"/>
      <path class="st25" d="M427.3,598.4l-.4,3.1-3-.6c-.2,0-.4-.1-.5-.3s-.2-.3-.2-.6v-1.6h4.1ZM423.2,618.6v-1.6c0-.2,0-.4.2-.6s.3-.2.5-.3l3-.6.4,3.1h-4.1ZM427.8,594.5c-.7,0-1.2-.3-1.8-.8-.5-.5-.8-1.1-.8-1.8s.3-1.3.8-1.8c.5-.5,1.1-.8,1.8-.8s1.3.3,1.8.8.8,1.1.8,1.8-.3,1.2-.8,1.8c-.5.5-1.1.8-1.8.8ZM426.1,618.6v-20.2h3.5v20.2h-3.5ZM428.5,618.6l.4-3.1,3,.6c.2,0,.4.1.5.3s.2.3.2.6v1.6h-4.1Z"/>
      <path class="st25" d="M443.3,618.8c-1.8,0-3.3-.4-4.6-1.3s-2.4-2.1-3.1-3.6c-.8-1.6-1.1-3.4-1.1-5.5s.4-3.8,1.1-5.4c.7-1.6,1.8-2.8,3.2-3.7,1.4-.9,3.2-1.3,5.3-1.3s1.8.1,2.9.4,2.1.6,3.1,1v2.2h-2.1c-.5-.3-1.1-.5-1.7-.6s-1.3-.2-2-.2c-1.4,0-2.5.3-3.4.9-.9.6-1.6,1.5-2,2.6-.5,1.1-.7,2.5-.7,4,0,2.3.5,4.2,1.5,5.6,1,1.4,2.5,2.1,4.3,2.1s1.9-.2,2.5-.5c.7-.3,1.2-.7,1.6-1,.4-.3.8-.5,1-.5s.3,0,.4,0c.1,0,.2.1.3.2l1,1.3c-.9,1.1-2,1.8-3.3,2.3-1.3.5-2.7.8-4.2.8ZM447.3,601.1l2.5.5v3.1h-1.3c-.3,0-.5,0-.6-.2-.1-.1-.2-.3-.2-.5l-.4-3Z"/>
      <path class="st25" d="M466.8,590l-.4,3.1-3-.6c-.2,0-.4-.1-.5-.3s-.2-.3-.2-.6v-1.6h4.1ZM473.3,618.6l-8.9-28.6h3.2c.3,0,.6,0,.9.3.2.2.4.4.5.7l5.9,19.8c.1.4.2.8.3,1.2,0,.4.1.8.2,1.3.2-1,.4-1.6.4-1.9,0-.3.1-.5.2-.6l6.7-19.8c0-.2.2-.4.5-.6.2-.2.5-.3.9-.3h1.1c.7,0,1.1.3,1.3.9l6.7,19.8c.1.3.2.7.3,1.1,0,.4.2.8.3,1.3.1-.6.2-1.1.3-1.5,0-.4.1-.7.2-.9l5.9-19.8c0-.2.2-.5.5-.6.2-.2.5-.3.8-.3h3l-8.9,28.6h-3.5l-7.2-21.8c0-.2-.1-.4-.2-.7,0-.2-.1-.5-.2-.8,0,0,0,.3-.2.7,0,.4-.2.6-.2.8l-7.2,21.8h-3.5ZM466.6,591v-1h3v1h-3ZM472.3,590v1.6c0,.2,0,.4-.2.6-.1.1-.3.2-.5.3l-3,.6-.4-3.1h4.1ZM500.8,590l-.4,3.1-3-.6c-.2,0-.4-.1-.5-.3s-.2-.3-.2-.6v-1.6h4.1ZM499.7,591v-1h3v1h-3ZM506.2,590v1.6c0,.2,0,.4-.2.6-.1.1-.3.2-.5.3l-3,.6-.4-3.1h4.1Z"/>
      <path class="st25" d="M517.7,618.8c-1.9,0-3.6-.4-5.1-1.3-1.4-.9-2.6-2.1-3.4-3.7-.8-1.6-1.2-3.5-1.2-5.7s.4-3.6,1.2-5.1c.8-1.5,1.9-2.7,3.3-3.6,1.4-.9,3.1-1.3,5-1.3s3.1.4,4.4,1.1,2.2,1.8,2.9,3.1c.7,1.3,1.1,2.9,1.1,4.8s0,.9-.2,1.1-.4.3-.7.3h-13.4v.5c.1,2.2.8,4,1.9,5.2,1.1,1.2,2.6,1.9,4.5,1.9s1.6-.2,2.5-.5c.8-.3,1.5-.7,2.1-1s1.1-.5,1.3-.5.5.1.7.3l1,1.3c-.5.7-1.2,1.3-2.1,1.7-.9.5-1.8.8-2.8,1-1,.2-2,.3-2.9.3ZM511.7,606.3h11c0-1.6-.5-3-1.4-4-.9-1-2.1-1.6-3.7-1.6s-3.1.5-4.1,1.5-1.6,2.3-1.8,4.1Z"/>
      <path class="st25" d="M534.4,618.9c-1.1,0-2-.2-2.9-.6-.9-.4-1.5-1-2-1.8-.5-.8-.8-1.8-.8-2.9s.2-1.6.7-2.3c.4-.7,1.1-1.4,2.1-2,1-.6,2.3-1,3.8-1.4,1.6-.4,3.5-.6,5.8-.6v-1.6c0-1.6-.3-2.8-1-3.6-.7-.8-1.7-1.2-3-1.2s-1.4.2-2.2.5c-.8.4-1.5.7-2.1,1.1-.6.4-1.1.5-1.5.5s-.4,0-.6-.2-.3-.3-.4-.5l-.6-1.1c1.1-1.1,2.3-1.9,3.6-2.4,1.3-.5,2.7-.8,4.3-.8s2.8.3,3.8,1c1,.6,1.8,1.5,2.4,2.7.5,1.1.8,2.5.8,4v12.9h-1.6c-.3,0-.6,0-.8-.2-.2-.1-.4-.3-.4-.7l-.4-1.9c-1.1,1-2.1,1.7-3.2,2.2s-2.3.8-3.8.8ZM535.4,616.4c1.2,0,2.2-.2,3.1-.7.9-.5,1.8-1.1,2.6-2v-4.2c-1.4,0-2.6.1-3.7.3-1.1.2-2.1.4-2.8.7-.8.3-1.4.7-1.8,1.2-.4.5-.6,1-.6,1.7,0,1.1.3,1.8.9,2.3.6.5,1.4.7,2.3.7ZM543.4,618.6l.4-3.1,3,.6c.2,0,.4.1.5.3s.2.3.2.6v1.6h-4.1Z"/>
      <path class="st25" d="M553.2,589.2l-.4,3.1-3-.6c-.2,0-.4-.1-.5-.3s-.2-.3-.2-.6v-1.6h4.1ZM549.1,618.6v-1.6c0-.2,0-.4.2-.6s.3-.2.5-.3l3-.6.4,3.1h-4.1ZM552,618.6v-29.4h3.5v29.4h-3.5ZM554.3,618.6l.4-3.1,3,.6c.2,0,.4.1.5.3s.2.3.2.6v1.6h-4.1Z"/>
      <path class="st25" d="M567.8,618.9c-1.6,0-2.8-.4-3.7-1.3-.9-.9-1.3-2.2-1.3-3.8v-12.3h-2.4c-.2,0-.4,0-.5-.2s-.2-.3-.2-.6v-1.4l3.3-.4.8-6.2c0-.5.3-.7.8-.7h1.8v6.9h5.8v2.6h-5.8v12.1c0,.9.2,1.5.6,1.9.4.4.9.6,1.6.6s.6,0,1-.2c.3-.2.7-.3,1-.5.3-.2.5-.2.6-.2s.3.1.5.3l1,1.7c-.6.6-1.3,1-2.2,1.3-.9.3-1.7.5-2.6.5Z"/>
      <path class="st25" d="M578.7,589.2l-.4,3.1-3-.6c-.2,0-.4-.1-.5-.3s-.2-.3-.2-.6v-1.6h4.1ZM574.7,618.6v-1.6c0-.2,0-.4.2-.6s.3-.2.5-.3l3-.6.4,3.1h-4.1ZM577.5,618.6v-29.4h3.5v11.9c.9-.9,1.8-1.6,2.9-2.2s2.2-.8,3.6-.8,2.7.3,3.7,1c1,.6,1.8,1.5,2.3,2.7.5,1.2.8,2.5.8,4v12.9h-3.5v-12.9c0-1.5-.4-2.7-1.1-3.5-.7-.9-1.8-1.3-3.2-1.3s-2,.3-2.9.8c-.9.5-1.8,1.2-2.5,2.1v14.9h-3.5ZM579.9,618.6l.4-3.1,3,.6c.2,0,.4.1.5.3s.2.3.2.6v1.6h-4.1ZM593.1,618.6l.4-3.1,3,.6c.2,0,.4.1.5.3s.2.3.2.6v1.6h-4.1Z"/>
      <path class="st25" d="M611.5,625.4v-37.4h2.7v37.4h-2.7Z"/>
      <path class="st25" d="M638.1,618.6v-25.3h-9.3v-3.3h22.3v3.3h-9.2v25.3h-3.9ZM632,592.3l-.6,4c0,.2-.1.4-.3.5-.2,0-.3.1-.6.1h-1.8v-3.6l3.3-1ZM635.2,618.6v-1.6c0-.2,0-.4.2-.6s.3-.2.5-.3l3-.6.4,3.1h-4.1ZM640.7,618.6l.4-3.1,3,.6c.2,0,.4.1.5.3s.2.3.2.6v1.6h-4.1ZM647.9,592.3l3.3,1v3.6h-1.8c-.2,0-.4,0-.5-.1-.1,0-.2-.3-.3-.5l-.6-4Z"/>
      <path class="st25" d="M657.1,598.4l-.4,3.1-3-.6c-.2,0-.4-.1-.5-.3s-.2-.3-.2-.6v-1.6h4.1ZM653,618.6v-1.6c0-.2,0-.4.2-.6s.3-.2.5-.3l3-.6.4,3.1h-4.1ZM655.9,618.6v-20.2h2c.4,0,.7,0,.8.2s.3.4.3.8l.2,3.1c.7-1.4,1.5-2.5,2.5-3.3s2.2-1.2,3.6-1.2,1.1,0,1.5.2c.4.1.9.3,1.2.5l-.4,2.7c0,.2,0,.3-.2.4-.1,0-.3.1-.4.1s-.5,0-1.1-.2c-.5-.1-1-.2-1.4-.2-1.2,0-2.3.4-3.1,1.1-.8.7-1.5,1.8-2.1,3.1v12.9h-3.5ZM658.2,618.6l.4-3.1,3,.6c.2,0,.4.1.5.3s.2.3.2.6v1.6h-4.1Z"/>
      <path class="st25" d="M673,598.4l-.4,3.1-3-.6c-.2,0-.4-.1-.5-.3s-.2-.3-.2-.6v-1.6h4.1ZM678.6,618.9c-1.5,0-2.7-.3-3.7-1-1-.6-1.8-1.5-2.3-2.7-.5-1.1-.8-2.5-.8-4v-12.9h3.5v12.9c0,1.5.4,2.7,1.1,3.6.7.8,1.8,1.3,3.2,1.3s2-.2,2.9-.7,1.8-1.2,2.5-2.1v-14.9h3.5v20.2h-2.1c-.5,0-.8-.3-1-.8l-.3-2.1c-.9,1-1.9,1.7-2.9,2.3-1.1.6-2.3.9-3.7.9ZM686.3,598.4l-.4,3.1-3-.6c-.2,0-.4-.1-.5-.3s-.2-.3-.2-.6v-1.6h4.1ZM687.4,618.6l.4-3.1,3,.6c.2,0,.4.1.5.3s.2.3.2.6v1.6h-4.1Z"/>
      <path class="st25" d="M699.9,618.9c-1,0-2-.1-3.2-.3s-2.2-.5-3-.8v-2.9l1.8.4c.3.2.9.5,1.7.7.8.3,1.6.4,2.6.4,1.5,0,2.6-.3,3.3-.9.7-.6,1.1-1.4,1.1-2.3s-.2-1.4-.7-1.8c-.5-.4-1.1-.8-1.9-1-.8-.3-1.7-.5-2.6-.8-1-.3-1.8-.7-2.6-1.1s-1.4-1-1.9-1.7c-.5-.7-.7-1.5-.7-2.6s.3-2.2.9-3.1c.6-.9,1.5-1.6,2.5-2.1,1.1-.5,2.3-.8,3.6-.8s1.6,0,2.6.3c.9.2,2,.5,3.1.8v2.4l-2.1-.3c-.6-.2-1.1-.3-1.7-.4-.6-.1-1.1-.2-1.7-.2-.8,0-1.5.1-2.1.4s-1.1.6-1.4,1-.5.9-.5,1.5.3,1.3.9,1.8c.6.4,1.3.8,2.1,1.1.8.3,1.6.5,2.3.8.9.3,1.7.6,2.5,1,.8.4,1.4,1,1.9,1.7.5.7.8,1.6.8,2.7s-.3,2.3-.9,3.2c-.6,1-1.5,1.7-2.6,2.3s-2.5.8-4,.8ZM696.2,616.1l-2.5-.5v-3.1h1.3c.3,0,.5,0,.6.2.1.1.2.3.2.5l.4,3ZM703.9,600.7l2.5.5v3.1h-1.3c-.3,0-.5,0-.6-.2s-.2-.3-.2-.5l-.4-3Z"/>
      <path class="st25" d="M717.6,618.9c-1.6,0-2.8-.4-3.7-1.3-.9-.9-1.3-2.2-1.3-3.8v-12.3h-2.4c-.2,0-.4,0-.5-.2s-.2-.3-.2-.6v-1.4l3.3-.4.8-6.2c0-.5.3-.7.8-.7h1.8v6.9h5.8v2.6h-5.8v12.1c0,.9.2,1.5.6,1.9.4.4.9.6,1.6.6s.6,0,1-.2c.3-.2.7-.3,1-.5.3-.2.5-.2.6-.2s.3.1.5.3l1,1.7c-.6.6-1.3,1-2.2,1.3-.9.3-1.7.5-2.6.5Z"/>
      <path class="st25" d="M734.4,618.8c-1.9,0-3.6-.4-5.1-1.3-1.4-.9-2.6-2.1-3.4-3.7-.8-1.6-1.2-3.5-1.2-5.7s.4-3.6,1.2-5.1c.8-1.5,1.9-2.7,3.3-3.6,1.4-.9,3.1-1.3,5-1.3s3.1.4,4.4,1.1,2.2,1.8,2.9,3.1c.7,1.3,1.1,2.9,1.1,4.8s0,.9-.2,1.1-.4.3-.7.3h-13.4v.5c.1,2.2.8,4,1.9,5.2,1.1,1.2,2.6,1.9,4.5,1.9s1.6-.2,2.5-.5c.8-.3,1.5-.7,2.1-1s1.1-.5,1.3-.5.5.1.7.3l1,1.3c-.5.7-1.2,1.3-2.1,1.7-.9.5-1.8.8-2.8,1-1,.2-2,.3-2.9.3ZM728.4,606.3h11c0-1.6-.5-3-1.4-4-.9-1-2.1-1.6-3.7-1.6s-3.1.5-4.1,1.5-1.6,2.3-1.8,4.1Z"/>
      <path class="st25" d="M752.9,618.8c-1.6,0-3-.4-4.2-1.3-1.1-.9-2-2.1-2.6-3.6-.6-1.6-.9-3.4-.9-5.4s.3-3.7,1-5.3,1.7-2.8,3-3.8c1.3-.9,2.9-1.4,4.7-1.4s2.3.2,3.2.6c.9.4,1.7,1,2.4,1.8v-11.2h3.5v29.4h-2.1c-.5,0-.9-.3-1-.8l-.3-2.4c-.9,1-1.9,1.9-3,2.5-1.1.6-2.4,1-3.8,1ZM754.1,616c1.2,0,2.2-.3,3-.8.9-.5,1.7-1.3,2.4-2.3v-9.8c-.7-.9-1.4-1.5-2.2-1.8s-1.6-.5-2.6-.5-2.3.3-3.2.9-1.5,1.5-2,2.6-.7,2.6-.7,4.2c0,2.4.4,4.3,1.2,5.5.8,1.3,2.1,1.9,3.9,1.9ZM760.7,589.2l-.4,3.1-3-.6c-.2,0-.4-.1-.5-.3s-.2-.3-.2-.6v-1.6h4.1ZM761.9,618.6l.4-3.1,3,.6c.2,0,.4.1.5.3.1.1.2.3.2.6v1.6h-4.1Z"/>
      <path class="st25" d="M777.5,618.6v-1.6c0-.2,0-.4.2-.6s.3-.2.5-.3l3-.6.4,3.1h-4.1ZM778.7,618.6l11.4-28.6h3.9l11.4,28.6h-3c-.3,0-.6,0-.8-.3s-.4-.4-.5-.7l-8.2-21.3c-.1-.4-.3-.8-.4-1.2-.1-.4-.3-.9-.4-1.5-.2.5-.3,1-.4,1.5s-.3.9-.4,1.2l-8.2,21.3c0,.2-.2.5-.5.6-.2.2-.5.3-.9.3h-3ZM781.6,618.6v-2.5h2.1v2.5h-2.1ZM781.8,618.6l.4-3.1,3,.6c.2,0,.4.1.5.3s.2.3.2.6v1.6h-4.1ZM785.2,610.1l1.1-2.8h11.8l1.1,2.8h-13.9ZM798.3,618.6v-1.6c0-.2,0-.4.2-.6s.3-.2.5-.3l3-.6.4,3.1h-4.1ZM800.5,618.6v-2.5h2.1v2.5h-2.1ZM802.5,618.6l.4-3.1,3,.6c.2,0,.4.1.5.3s.2.3.2.6v1.6h-4.1Z"/>
      <path class="st25" d="M816.1,618.8c-1.6,0-3-.4-4.2-1.3-1.1-.9-2-2.1-2.6-3.6-.6-1.6-.9-3.4-.9-5.4s.3-3.7,1-5.3,1.7-2.8,3-3.8c1.3-.9,2.9-1.4,4.7-1.4s2.3.2,3.2.6c.9.4,1.7,1,2.4,1.8v-11.2h3.5v29.4h-2.1c-.5,0-.9-.3-1-.8l-.3-2.4c-.9,1-1.9,1.9-3,2.5-1.1.6-2.4,1-3.8,1ZM817.3,616c1.2,0,2.2-.3,3-.8.9-.5,1.7-1.3,2.4-2.3v-9.8c-.7-.9-1.4-1.5-2.2-1.8s-1.6-.5-2.6-.5-2.3.3-3.2.9-1.5,1.5-2,2.6-.7,2.6-.7,4.2c0,2.4.4,4.3,1.2,5.5.8,1.3,2.1,1.9,3.9,1.9ZM823.9,589.2l-.4,3.1-3-.6c-.2,0-.4-.1-.5-.3s-.2-.3-.2-.6v-1.6h4.1ZM825.1,618.6l.4-3.1,3,.6c.2,0,.4.1.5.3.1.1.2.3.2.6v1.6h-4.1Z"/>
      <path class="st25" d="M834.6,598.4l-.4,3.1-3-.6c-.2,0-.4-.1-.5-.3s-.2-.3-.2-.6v-1.6h4.1ZM840.2,618.6l-8.2-20.2h2.9c.3,0,.5,0,.7.2s.3.3.4.5l5.1,13c.1.3.3.7.4,1.2s.2,1,.4,1.6c.1-.5.2-.9.3-1.4.1-.5.3-1,.5-1.4l5.2-13c0-.2.2-.4.4-.5.2-.1.4-.2.7-.2h2.8l-8.2,20.2h-3.2ZM834.4,599.4v-1h3v1h-3ZM839.6,598.4v1.6c0,.2,0,.4-.2.6-.1.1-.3.2-.5.3l-3,.6-.4-3.1h4.1ZM848,598.4l-.4,3.1-3-.6c-.2,0-.4-.1-.5-.3s-.2-.3-.2-.6v-1.6h4.1ZM846.8,599.4v-1h3v1h-3ZM853,598.4v1.6c0,.2,0,.4-.2.6s-.3.2-.5.3l-3,.6-.4-3.1h4.1Z"/>
      <path class="st25" d="M858.9,598.4l-.4,3.1-3-.6c-.2,0-.4-.1-.5-.3s-.2-.3-.2-.6v-1.6h4.1ZM854.8,618.6v-1.6c0-.2,0-.4.2-.6s.3-.2.5-.3l3-.6.4,3.1h-4.1ZM859.4,594.5c-.7,0-1.2-.3-1.8-.8-.5-.5-.8-1.1-.8-1.8s.3-1.3.8-1.8c.5-.5,1.1-.8,1.8-.8s1.3.3,1.8.8.8,1.1.8,1.8-.3,1.2-.8,1.8c-.5.5-1.1.8-1.8.8ZM857.7,618.6v-20.2h3.5v20.2h-3.5ZM860,618.6l.4-3.1,3,.6c.2,0,.4.1.5.3s.2.3.2.6v1.6h-4.1Z"/>
      <path class="st25" d="M874.9,618.8c-1.8,0-3.3-.4-4.6-1.3s-2.4-2.1-3.1-3.6c-.8-1.6-1.1-3.4-1.1-5.5s.4-3.8,1.1-5.4c.7-1.6,1.8-2.8,3.2-3.7,1.4-.9,3.2-1.3,5.3-1.3s1.8.1,2.9.4,2.1.6,3.1,1v2.2h-2.1c-.5-.3-1.1-.5-1.7-.6s-1.3-.2-2-.2c-1.4,0-2.5.3-3.4.9-.9.6-1.6,1.5-2,2.6-.5,1.1-.7,2.5-.7,4,0,2.3.5,4.2,1.5,5.6,1,1.4,2.5,2.1,4.3,2.1s1.9-.2,2.5-.5c.7-.3,1.2-.7,1.6-1,.4-.3.8-.5,1-.5s.3,0,.4,0c.1,0,.2.1.3.2l1,1.3c-.9,1.1-2,1.8-3.3,2.3-1.3.5-2.7.8-4.2.8ZM878.9,601.1l2.5.5v3.1h-1.3c-.3,0-.5,0-.6-.2-.1-.1-.2-.3-.2-.5l-.4-3Z"/>
      <path class="st25" d="M894.4,618.8c-1.9,0-3.6-.4-5.1-1.3-1.4-.9-2.6-2.1-3.4-3.7-.8-1.6-1.2-3.5-1.2-5.7s.4-3.6,1.2-5.1c.8-1.5,1.9-2.7,3.3-3.6,1.4-.9,3.1-1.3,5-1.3s3.1.4,4.4,1.1,2.2,1.8,2.9,3.1c.7,1.3,1.1,2.9,1.1,4.8s0,.9-.2,1.1-.4.3-.7.3h-13.4v.5c.1,2.2.8,4,1.9,5.2,1.1,1.2,2.6,1.9,4.5,1.9s1.6-.2,2.5-.5c.8-.3,1.5-.7,2.1-1s1.1-.5,1.3-.5.5.1.7.3l1,1.3c-.5.7-1.2,1.3-2.1,1.7-.9.5-1.8.8-2.8,1-1,.2-2,.3-2.9.3ZM888.4,606.3h11c0-1.6-.5-3-1.4-4-.9-1-2.1-1.6-3.7-1.6s-3.1.5-4.1,1.5-1.6,2.3-1.8,4.1Z"/>
    </g>
  </g>
</svg>